<svg xmlns="http://www.w3.org/2000/svg" style="display: none;"><symbol id="fb" viewBox="0 0 512 512"><title>facebook</title><path d="m297.277344 508.667969c-2.132813.347656-4.273438.667969-6.421875.960937 2.148437-.292968 4.289062-.613281 6.421875-.960937zm0 0"/><path d="m302.398438 507.792969c-1.019532.1875-2.039063.359375-3.058594.535156 1.019531-.175781 2.039062-.347656 3.058594-.535156zm0 0"/><path d="m285.136719 510.339844c-2.496094.28125-5.007813.53125-7.527344.742187 2.519531-.210937 5.03125-.460937 7.527344-.742187zm0 0"/><path d="m290.054688 509.738281c-1.199219.160157-2.40625.308594-3.609376.449219 1.203126-.140625 2.410157-.289062 3.609376-.449219zm0 0"/><path d="m309.367188 506.410156c-.898438.191406-1.800782.382813-2.703126.566406.902344-.183593 1.804688-.375 2.703126-.566406zm0 0"/><path d="m326.664062 502.113281c-.726562.207031-1.453124.402344-2.179687.605469.726563-.203125 1.453125-.398438 2.179687-.605469zm0 0"/><path d="m321.433594 503.542969c-.789063.207031-1.582032.417969-2.375.617187.792968-.199218 1.585937-.40625 2.375-.617187zm0 0"/><path d="m314.589844 505.253906c-.835938.195313-1.679688.378906-2.523438.566406.84375-.1875 1.6875-.371093 2.523438-.566406zm0 0"/><path d="m277.527344 511.089844c-1.347656.113281-2.695313.214844-4.046875.304687 1.351562-.089843 2.699219-.191406 4.046875-.304687zm0 0"/><path d="m512 256c0-141.363281-114.636719-256-256-256s-256 114.636719-256 256 114.636719 256 256 256c1.503906 0 3-.03125 4.5-.058594v-199.285156h-55v-64.097656h55v-47.167969c0-54.703125 33.394531-84.476563 82.191406-84.476563 23.367188 0 43.453125 1.742188 49.308594 2.519532v57.171875h-33.648438c-26.546874 0-31.6875 12.617187-31.6875 31.128906v40.824219h63.476563l-8.273437 64.097656h-55.203126v189.453125c107.003907-30.675781 185.335938-129.257813 185.335938-246.109375zm0 0"/><path d="m272.914062 511.429688c-2.664062.171874-5.339843.308593-8.023437.398437 2.683594-.089844 5.359375-.226563 8.023437-.398437zm0 0"/><path d="m264.753906 511.835938c-1.414062.046874-2.832031.082031-4.25.105468 1.417969-.023437 2.835938-.058594 4.25-.105468zm0 0"/></symbol><symbol id="whatsapp" viewBox="0 0 512 512"><title>whatsapp</title><path d="m256 0c-141.363281 0-256 114.636719-256 256s114.636719 256 256 256 256-114.636719 256-256-114.636719-256-256-256zm5.425781 405.050781c-.003906 0 .003907 0 0 0h-.0625c-25.644531-.011719-50.84375-6.441406-73.222656-18.644531l-81.222656 21.300781 21.738281-79.375c-13.410156-23.226562-20.464844-49.578125-20.453125-76.574219.035156-84.453124 68.769531-153.160156 153.222656-153.160156 40.984375.015625 79.457031 15.96875 108.382813 44.917969 28.929687 28.953125 44.851562 67.4375 44.835937 108.363281-.035156 84.457032-68.777343 153.171875-153.21875 153.171875zm0 0"/><path d="m261.476562 124.46875c-70.246093 0-127.375 57.105469-127.40625 127.300781-.007812 24.054688 6.726563 47.480469 19.472657 67.75l3.027343 4.816407-12.867187 46.980468 48.199219-12.640625 4.652344 2.757813c19.550781 11.601562 41.964843 17.738281 64.816406 17.746094h.050781c70.191406 0 127.320313-57.109376 127.351563-127.308594.011718-34.019532-13.222657-66.003906-37.265626-90.066406-24.042968-24.0625-56.019531-37.324219-90.03125-37.335938zm74.90625 182.035156c-3.191406 8.9375-18.484374 17.097656-25.839843 18.199219-6.597657.984375-14.941407 1.394531-24.113281-1.515625-5.5625-1.765625-12.691407-4.121094-21.828126-8.0625-38.402343-16.578125-63.484374-55.234375-65.398437-57.789062-1.914063-2.554688-15.632813-20.753907-15.632813-39.59375 0-18.835938 9.890626-28.097657 13.398438-31.925782 3.511719-3.832031 7.660156-4.789062 10.210938-4.789062 2.550781 0 5.105468.023437 7.335937.132812 2.351563.117188 5.507813-.894531 8.613281 6.570313 3.191406 7.664062 10.847656 26.5 11.804688 28.414062.957031 1.917969 1.59375 4.152344.320312 6.707031-1.277344 2.554688-5.519531 8.066407-9.570312 13.089844-1.699219 2.105469-3.914063 3.980469-1.679688 7.8125 2.230469 3.828125 9.917969 16.363282 21.296875 26.511719 14.625 13.039063 26.960938 17.078125 30.789063 18.996094 3.824218 1.914062 6.058594 1.59375 8.292968-.957031 2.230469-2.554688 9.570313-11.175782 12.121094-15.007813 2.550782-3.832031 5.105469-3.191406 8.613282-1.914063 3.511718 1.273438 22.332031 10.535157 26.160156 12.449219 3.828125 1.917969 6.378906 2.875 7.335937 4.472657.960938 1.597656.960938 9.257812-2.230469 18.199218zm0 0"/></symbol><symbol id="skype" viewBox="0 0 512 512"><title>skype</title><path d="m284.4375 237.761719-35.203125-7.8125c-13.390625-3.050781-28.804687-7.082031-28.804687-19.707031 0-12.652344 10.8125-21.492188 30.332031-21.492188 39.339843 0 35.746093 27.035156 55.277343 27.035156 10.277344 0 19.273438-6.042968 19.273438-16.433594 0-24.246093-38.804688-42.441406-71.722656-42.441406-35.734375 0-73.789063 15.175782-73.789063 55.59375 0 19.464844 6.953125 40.171875 45.257813 49.777344l47.5625 11.875c14.394531 3.546875 17.996094 11.644531 17.996094 18.949219 0 12.148437-12.066407 24.015625-33.925782 24.015625-42.699218 0-36.773437-32.859375-59.65625-32.859375-10.28125 0-17.742187 7.082031-17.742187 17.1875 0 19.703125 23.921875 45.996093 77.398437 45.996093 50.878906 0 76.089844-24.523437 76.089844-57.367187 0-21.207031-9.777344-43.722656-48.34375-52.316406zm0 0"/><path d="m256 0c-141.363281 0-256 114.636719-256 256s114.636719 256 256 256 256-114.636719 256-256-114.636719-256-256-256zm133.285156 388.90625c-16.832031 16.839844-39.199218 26.09375-62.996094 26.09375-15.414062 0-30.507812-4.007812-43.839843-11.550781-8.652344 1.535156-17.515625 2.34375-26.359375 2.34375-20.320313 0-40.039063-3.984375-58.589844-11.847657-17.9375-7.5625-34.027344-18.425781-47.859375-32.25-13.816406-13.820312-24.667969-29.910156-32.242187-47.839843-7.859376-18.5625-11.835938-38.269531-11.835938-58.59375 0-8.703125.78125-17.417969 2.265625-25.945313-7.316406-13.160156-11.210937-28.050781-11.210937-43.203125 0-23.800781 9.273437-46.179687 26.097656-63.007812 16.832031-16.835938 39.210937-26.105469 63.011718-26.105469 14.578126 0 28.984376 3.636719 41.789063 10.445312.023437-.003906.050781-.003906.070313-.011718 9.335937-1.789063 18.925781-2.691406 28.503906-2.691406 20.316406 0 40.03125 3.980468 58.582031 11.828124 17.917969 7.582032 34.027344 18.433594 47.839844 32.253907 13.832031 13.824219 24.679687 29.921875 32.261719 47.847656 7.859374 18.558594 11.835937 38.269531 11.835937 58.589844 0 9.160156-.863281 18.328125-2.507813 27.285156 7.367188 13.210937 11.285157 28.152344 11.285157 43.355469-.003907 23.800781-9.265625 46.183594-26.101563 63.003906zm0 0"/></symbol><symbol id="at" viewBox="0 0 490.2 490.2"><title>at</title><path d="M420.95,61.8C376.25,20.6,320.65,0,254.25,0c-69.8,0-129.3,23.4-178.4,70.3s-73.7,105.2-73.7,175 c0,66.9,23.4,124.4,70.1,172.6c46.9,48.2,109.9,72.3,189.2,72.3c47.8,0,94.7-9.8,140.7-29.5c15-6.4,22.3-23.6,16.2-38.7l0,0 c-6.3-15.6-24.1-22.8-39.6-16.2c-40,17.2-79.2,25.8-117.4,25.8c-60.8,0-107.9-18.5-141.3-55.6c-33.3-37-50-80.5-50-130.4 c0-54.2,17.9-99.4,53.6-135.7c35.6-36.2,79.5-54.4,131.5-54.4c47.9,0,88.4,14.9,121.4,44.7s49.5,67.3,49.5,112.5 c0,30.9-7.6,56.7-22.7,77.2c-15.1,20.6-30.8,30.8-47.1,30.8c-8.8,0-13.2-4.7-13.2-14.2c0-7.7,0.6-16.7,1.7-27.1l18.6-152.1h-64 l-4.1,14.9c-16.3-13.3-34.2-20-53.6-20c-30.8,0-57.2,12.3-79.1,36.8c-22,24.5-32.9,56.1-32.9,94.7c0,37.7,9.7,68.2,29.2,91.3 c19.5,23.2,42.9,34.7,70.3,34.7c24.5,0,45.4-10.3,62.8-30.8c13.1,19.7,32.4,29.5,57.9,29.5c37.5,0,69.9-16.3,97.2-49 c27.3-32.6,41-72,41-118.1C488.05,152.9,465.75,103,420.95,61.8z M273.55,291.9c-11.3,15.2-24.8,22.9-40.5,22.9 c-10.7,0-19.3-5.6-25.8-16.8c-6.6-11.2-9.9-25.1-9.9-41.8c0-20.6,4.6-37.2,13.8-49.8s20.6-19,34.2-19c11.8,0,22.3,4.7,31.5,14.2 s13.8,22.1,13.8,37.9C290.55,259.2,284.85,276.6,273.55,291.9z"/></symbol><symbol id="viber" viewBox="0 0 481.168 481.168"><title>speech-bubble</title><path d="M410.639,70.5c-94-94-246.3-94-340.2,0c-90.4,90.4-93.8,235-10.1,329.5l2.5,2c-9.1,19.6-24.7,43.8-49.5,56 c-8.2,4-6.3,16.2,2.7,17.6c27.1,4.2,66-0.5,102.3-27.9l0.5,0.4c92.2,54.2,212.8,41.8,292-37.4 C504.639,316.8,504.639,164.4,410.639,70.5z M319.839,343.5c-5.3,5.4-10.9,10.4-15.9,16c-7.3,8.2-16.5,10.8-26.9,10.2 c-15.2-0.8-29.3-5.9-42.8-12.5c-30.1-14.6-55.8-34.9-77.3-60.5c-15.9-18.9-29-39.5-37.7-62.8c-4.2-11.3-7.2-22.8-6.3-35 c0.6-7.5,3.4-13.9,8.9-19.2c6-5.7,11.6-11.6,17.5-17.4c7.7-7.6,17.3-7.5,25,0c4.8,4.7,9.4,9.4,14.1,14.1c4.6,4.6,9.2,9.1,13.7,13.7 c8,8.1,8,17.5,0,25.6c-5.7,5.8-11.4,11.6-17.3,17.2c-1.5,1.5-1.7,2.7-0.9,4.6c3.8,9.2,9.4,17.4,15.6,25 c12.5,15.4,26.7,29.1,43.7,39.7c3.6,2.3,7.6,3.9,11.4,6c1.9,1.1,3.3,0.7,4.8-0.9c5.7-5.9,11.6-11.7,17.4-17.5 c7.7-7.6,17.3-7.6,24.9,0c9.4,9.3,18.7,18.6,28,28C327.739,326,327.739,335.6,319.839,343.5z M231.139,188.1l3-21.4 c20.7,2.9,39.5,12.3,54.3,27.1c14.1,14.1,23.3,31.8,26.6,51.3l-21.3,3.7c-2.6-15.1-9.7-28.8-20.6-39.7 C261.639,197.6,247.139,190.3,231.139,188.1z M349.839,245.1c-4.8-28-18-53.4-38.1-73.6c-21.2-21.2-48.1-34.6-77.8-38.8l3-21.4 c34.3,4.8,65.5,20.3,90,44.9c23.3,23.3,38.6,52.8,44.2,85.2L349.839,245.1z"/></symbol><symbol id="cell" viewBox="0 0 34.482 34.482"><title>vintage-cellphone</title><path d="M25.043,0H9.439c-1.3,0-2.364,1.063-2.364,2.364v7.483v14.789v7.483c0,1.301,1.064,2.363,2.364,2.363h15.604 c1.3,0,2.364-1.062,2.364-2.363v-7.483V9.847V2.364C27.407,1.063,26.343,0,25.043,0z M12.804,31.76h-2.548 c-0.469,0-0.85-0.38-0.85-0.849c0-0.47,0.381-0.851,0.85-0.851h2.548c0.469,0,0.85,0.381,0.85,0.851 C13.654,31.38,13.273,31.76,12.804,31.76z M12.804,28.52h-2.548c-0.469,0-0.85-0.381-0.85-0.85s0.381-0.85,0.85-0.85h2.548 c0.469,0,0.85,0.381,0.85,0.85S13.273,28.52,12.804,28.52z M12.804,25.28h-2.548c-0.469,0-0.85-0.38-0.85-0.849 c0-0.471,0.381-0.851,0.85-0.851h2.548c0.469,0,0.85,0.38,0.85,0.851C13.654,24.9,13.273,25.28,12.804,25.28z M12.804,22.041 h-2.548c-0.469,0-0.85-0.381-0.85-0.85s0.381-0.851,0.85-0.851h2.548c0.469,0,0.85,0.382,0.85,0.851S13.273,22.041,12.804,22.041z M18.515,31.76h-2.547c-0.47,0-0.85-0.38-0.85-0.849c0-0.47,0.38-0.851,0.85-0.851h2.547c0.47,0,0.85,0.381,0.85,0.851 C19.364,31.38,18.984,31.76,18.515,31.76z M18.515,28.52h-2.547c-0.47,0-0.85-0.381-0.85-0.85s0.38-0.85,0.85-0.85h2.547 c0.47,0,0.85,0.381,0.85,0.85S18.984,28.52,18.515,28.52z M18.515,25.28h-2.547c-0.47,0-0.85-0.38-0.85-0.849 c0-0.471,0.38-0.851,0.85-0.851h2.547c0.47,0,0.85,0.38,0.85,0.851C19.364,24.9,18.984,25.28,18.515,25.28z M18.515,22.041h-2.547 c-0.47,0-0.85-0.381-0.85-0.85s0.38-0.851,0.85-0.851h2.547c0.47,0,0.85,0.382,0.85,0.851S18.984,22.041,18.515,22.041z M24.226,31.76h-2.549c-0.469,0-0.85-0.38-0.85-0.849c0-0.47,0.381-0.851,0.85-0.851h2.549c0.469,0,0.85,0.381,0.85,0.851 C25.075,31.38,24.694,31.76,24.226,31.76z M24.226,28.52h-2.549c-0.469,0-0.85-0.381-0.85-0.85s0.381-0.85,0.85-0.85h2.549 c0.469,0,0.85,0.381,0.85,0.85S24.694,28.52,24.226,28.52z M24.226,25.28h-2.549c-0.469,0-0.85-0.38-0.85-0.849 c0-0.471,0.381-0.851,0.85-0.851h2.549c0.469,0,0.85,0.38,0.85,0.851C25.075,24.9,24.694,25.28,24.226,25.28z M24.226,22.041 h-2.549c-0.469,0-0.85-0.381-0.85-0.85s0.381-0.851,0.85-0.851h2.549c0.469,0,0.85,0.382,0.85,0.851S24.694,22.041,24.226,22.041z M25.126,18.38H9.356V2.771h15.77V18.38z"/></symbol><symbol id="phone" viewBox="0 0 70.072 70.072"><title>smartphone-with-internet-connection</title><path d="M47.288,48.218c0-8.162-6.64-14.803-14.799-14.803v-2.494c9.537-0.002,17.297,7.757,17.297,17.292L47.288,48.218z M45.471,48.213c-0.005-7.153-5.826-12.979-12.987-12.979l0.005,2.5c5.778,0,10.479,4.704,10.479,10.479H45.471L45.471,48.213z M32.486,39.693l0.004,2.497c3.321-0.004,6.022,2.699,6.022,6.022h2.496C41.013,43.516,37.19,39.695,32.486,39.693z M65.097,32.19 h-6.984h-0.929c-2.069,0-3.743,1.674-3.743,3.745v0.406c0,2.076,1.674,3.748,3.743,3.748h6.987h0.926 c2.066,0,3.745-1.681,3.745-3.748l-0.004-0.41C68.842,33.865,67.163,32.19,65.097,32.19z M68.842,26.588v0.416 c0,2.07-1.674,3.745-3.743,3.745h-0.928h-6.059h-0.931c-2.062,0-3.741-1.67-3.741-3.745v-0.406c0-2.072,1.679-3.747,3.745-3.747 h0.927v-0.005h2.043V7.505L26.036,7.5v8.376c3.265-1.833,6.131-3.424,7.525-4.146c4.428-2.296,6.974,0.504,6.207,3.827 c-0.589,2.564-4.938,5.388-9.523,8.929c-0.906,0.704-2.49,1.747-4.208,2.836v33.99h34.12v-2.536h-2.974 c-2.067,0-3.741-1.681-3.741-3.743v-0.418c0-2.066,1.67-3.74,3.741-3.74h0.931h6.059h0.924c2.068,0,3.743,1.67,3.747,3.74 l-0.004,0.409c0.004,2.071-1.675,3.747-3.748,3.747h-0.924v0.005h-0.724v6.567c0,2.598-2.128,4.729-4.732,4.729H27.476 c-2.604,0-4.734-2.131-4.734-4.729V59.96h-5.688c0,0-8.404-0.031-12.961-6.918c-0.049-0.071-0.096-0.135-0.145-0.205 c-0.191-0.302-0.365-0.623-0.539-0.947c-0.147-0.273-0.292-0.565-0.433-0.862c-0.133-0.282-0.262-0.557-0.383-0.857 c-0.24-0.606-0.448-1.241-0.633-1.923c-0.051-0.203-0.089-0.422-0.14-0.632c-0.138-0.589-0.25-1.207-0.341-1.854 c-0.035-0.249-0.067-0.497-0.096-0.755c-0.089-0.881-0.152-1.796-0.152-2.781c0-11.063,5.169-15.748,8.697-17.199 c0.014-0.009,6.513-3.73,12.814-7.292V4.734c0-2.604,2.13-4.734,4.734-4.734h31.238c2.601,0,4.731,2.131,4.731,4.734v18.118h1.651 C67.168,22.847,68.842,24.526,68.842,26.588z M40.73,65.339c0,1.314,1.059,2.372,2.365,2.372c1.312,0,2.37-1.058,2.37-2.372 c0-1.31-1.059-2.367-2.37-2.367C41.789,62.972,40.73,64.034,40.73,65.339z M48.664,3.983c0-0.321-0.254-0.575-0.57-0.575H38.1 c-0.316,0-0.574,0.254-0.574,0.575c0,0.315,0.258,0.57,0.574,0.57h9.994C48.408,4.553,48.664,4.298,48.664,3.983z M65.097,41.534 h-0.926h-6.987c-2.064,0-3.743,1.679-3.743,3.745v0.41c0,2.071,1.674,3.746,3.743,3.746h0.929h6.059h0.926 c2.071,0,3.741-1.675,3.745-3.746l-0.004-0.41C68.838,43.213,67.168,41.534,65.097,41.534z"/></symbol></svg>