<svg xmlns="http://www.w3.org/2000/svg" style="display: none;"><symbol id="home" viewBox="0 0 460.298 460.297"><title>home</title><path d="M230.149,120.939L65.986,256.274c0,0.191-0.048,0.472-0.144,0.855c-0.094,0.38-0.144,0.656-0.144,0.852v137.041 c0,4.948,1.809,9.236,5.426,12.847c3.616,3.613,7.898,5.431,12.847,5.431h109.63V303.664h73.097v109.64h109.629 c4.948,0,9.236-1.814,12.847-5.435c3.617-3.607,5.432-7.898,5.432-12.847V257.981c0-0.76-0.104-1.334-0.288-1.707L230.149,120.939 z"/><path d="M457.122,225.438L394.6,173.476V56.989c0-2.663-0.856-4.853-2.574-6.567c-1.704-1.712-3.894-2.568-6.563-2.568h-54.816 c-2.666,0-4.855,0.856-6.57,2.568c-1.711,1.714-2.566,3.905-2.566,6.567v55.673l-69.662-58.245 c-6.084-4.949-13.318-7.423-21.694-7.423c-8.375,0-15.608,2.474-21.698,7.423L3.172,225.438c-1.903,1.52-2.946,3.566-3.14,6.136 c-0.193,2.568,0.472,4.811,1.997,6.713l17.701,21.128c1.525,1.712,3.521,2.759,5.996,3.142c2.285,0.192,4.57-0.476,6.855-1.998 L230.149,95.817l197.57,164.741c1.526,1.328,3.521,1.991,5.996,1.991h0.858c2.471-0.376,4.463-1.43,5.996-3.138l17.703-21.125 c1.522-1.906,2.189-4.145,1.991-6.716C460.068,229.007,459.021,226.961,457.122,225.438z"/></symbol><symbol id="homepage" viewBox="0 0 491.398 491.398"><title>homepage</title><path d="M481.765,220.422L276.474,15.123c-16.967-16.918-44.557-16.942-61.559,0.023L9.626,220.422 c-12.835,12.833-12.835,33.65,0,46.483c12.843,12.842,33.646,12.842,46.487,0l27.828-27.832v214.872 c0,19.343,15.682,35.024,35.027,35.024h74.826v-97.62c0-7.584,6.146-13.741,13.743-13.741h76.352 c7.59,0,13.739,6.157,13.739,13.741v97.621h74.813c19.346,0,35.027-15.681,35.027-35.024V239.091l27.812,27.815 c6.425,6.421,14.833,9.63,23.243,9.63c8.408,0,16.819-3.209,23.242-9.63C494.609,254.072,494.609,233.256,481.765,220.422z"/></symbol><symbol id="contact" viewBox="0 0 511.882 511.882"><title>contact</title><path d="M389.898,430.449l-86.29-57.527c-3.86-2.548-9.03-1.709-11.886,1.929l-25.125,32.302 c-8.143,10.612-22.839,13.641-34.514,7.113l-4.645-2.551c-16.759-9.143-37.623-20.517-79.04-61.934 c-41.417-41.417-52.8-62.281-61.934-79.049l-2.56-4.645c-6.527-11.672-3.498-26.366,7.113-34.505l32.293-25.134 c3.642-2.854,4.482-8.026,1.929-11.886l-57.518-86.299c-2.616-3.916-7.843-5.094-11.886-2.679l-36.105,21.65 c-7.746,4.521-13.443,11.863-15.899,20.489c-11.858,43.182-1.883,118.793,112.96,233.646s190.437,124.846,233.655,112.978 c8.628-2.459,15.969-8.159,20.489-15.909l21.641-36.105C394.997,438.293,393.818,433.063,389.898,430.449z"/><path d="M510.425,15.156c-0.946-0.946-2.234-1.471-3.572-1.456H123.767c-1.338-0.015-2.626,0.51-3.572,1.456 c-0.946,0.946-1.471,2.234-1.456,3.572V151.83l21.723,32.585c7.835,11.838,5.26,27.708-5.915,36.462l-32.265,25.134 c-3.454,2.62-4.458,7.38-2.359,11.173l2.633,4.8c8.395,15.966,18.635,30.892,30.51,44.471h373.787 c2.743,0.02,4.988-2.176,5.029-4.919V18.728C511.897,17.39,511.372,16.102,510.425,15.156z M250.661,181.434v-0.046 l-93.659,100.343c-3.444,3.694-9.23,3.896-12.923,0.453c-3.694-3.444-3.896-9.23-0.453-12.923l93.659-100.297 c3.444-3.694,9.23-3.896,12.923-0.453C253.902,171.955,254.105,177.741,250.661,181.434z M315.31,174.23 c-6.589,0.03-13.009-2.088-18.286-6.034L144.211,52.319c-4.024-3.065-4.802-8.812-1.737-12.837 c3.065-4.024,8.812-4.802,12.837-1.737l152.75,115.877c4.323,3.141,10.177,3.141,14.501,0L475.356,37.745 c4.024-3.052,9.761-2.264,12.814,1.76s2.264,9.761-1.76,12.814L333.596,168.196C328.319,172.142,321.9,174.26,315.31,174.23z M487.123,282.18c-1.773,1.656-4.132,2.539-6.557,2.455c-2.425-0.084-4.717-1.128-6.371-2.903l-93.65-100.343 c-3.182-3.729-2.856-9.304,0.737-12.637c3.594-3.334,9.177-3.24,12.657,0.212l93.632,100.297 C491.013,272.952,490.813,278.735,487.123,282.18z"/></symbol></svg>