<svg xmlns="http://www.w3.org/2000/svg" style="display: none;"><symbol id="html5" viewBox="0 0 512 512"><title>html5</title><g> <path d="M60.761,139.883c-7.81,0-14.144-6.334-14.144-14.144V60.761c0-7.81,6.334-14.144,14.144-14.144 h64.979c7.81,0,14.144,6.334,14.144,14.144s-6.334,14.144-14.144,14.144H74.905v50.835 C74.905,133.551,68.571,139.883,60.761,139.883z"/> <path  d="M451.239,465.383H386.26c-7.81,0-14.144-6.334-14.144-14.144s6.334-14.144,14.144-14.144h50.835 V386.26c0-7.81,6.334-14.144,14.144-14.144c7.81,0,14.144,6.334,14.144,14.144v64.979 C465.383,459.05,459.05,465.383,451.239,465.383z"/> <path d="M497.856,512H14.144C6.334,512,0,505.667,0,497.856V14.144C0,6.334,6.334,0,14.144,0h483.713 C505.667,0,512,6.334,512,14.144v483.713C512,505.667,505.667,512,497.856,512z M28.287,483.713h455.425V28.287H28.287V483.713z"/> </g><path style="fill:#CFF09E;" d="M371.515,199.425l6.947-77.791c0.229-2.544-1.677-4.626-4.232-4.626H137.768 c-2.554,0-4.458,2.082-4.232,4.626l21.539,241.599c0.226,2.544,2.426,5.186,4.888,5.87l91.402,25.378 c2.462,0.683,6.491,0.683,8.953,0.001l91.679-25.42c2.462-0.683,4.665-3.324,4.891-5.868l7.208-80.697"/><g> <path style="fill:#507C5C;" d="M255.844,409.138c-2.897,0-5.793-0.344-8.264-1.031l-91.4-25.376 c-8.191-2.274-14.438-9.776-15.192-18.244L119.447,122.89c-0.458-5.158,1.264-10.287,4.727-14.072 c3.462-3.785,8.417-5.954,13.593-5.954h236.465c5.178,0,10.134,2.171,13.598,5.959c3.461,3.786,5.182,8.916,4.721,14.073 l-6.949,77.789c-0.694,7.782-7.581,13.533-15.346,12.828c-7.78-0.694-13.526-7.565-12.828-15.346l5.986-67.017H148.585 l20.124,225.7l86.265,23.954c0.448,0.062,1.3,0.059,1.745,0l86.542-23.996l6.749-75.57c0.694-7.782,7.598-13.523,15.346-12.828 c7.78,0.694,13.526,7.565,12.828,15.346l-7.208,80.697c-0.758,8.465-7.005,15.964-15.192,18.238l-91.686,25.423 C261.628,408.795,258.737,409.138,255.844,409.138z M255.113,380.843l0.037,0.01C255.139,380.849,255.126,380.846,255.113,380.843z M256.573,380.845c-0.011,0.003-0.021,0.006-0.03,0.009L256.573,380.845z"/> <path style="fill:#507C5C;" d="M332.594,172.417c-0.204,2.27-0.556,6.21-0.782,8.755l-0.567,6.339 c-0.229,2.544-0.553,6.182-0.726,8.083c-0.171,1.902-0.334,3.46-0.363,3.46c-0.028,0-2.143,0-4.699,0h-64.81 c-2.554,0-4.666,0-4.694,0c-0.028,0-2.141,0-4.696,0h-34.133c-2.554,0-4.458,2.082-4.232,4.626l1.991,22.255 c0.226,2.544,2.503,4.626,5.059,4.626h31.317c2.554,0,4.669,0,4.696,0c0.027,0,2.14,0,4.694,0h53.829c2.554,0,6.509,0,8.786,0 c2.276,0,3.97,1.857,3.764,4.127s-0.562,6.21-0.788,8.755l-6.403,71.749c-0.229,2.544-0.518,5.796-0.642,7.225 c-0.127,1.428-2.245,3.155-4.707,3.839l-54.009,14.975c-2.462,0.682-4.508,1.247-4.546,1.255c-0.038,0.008-2.083-0.545-4.546-1.228 l-54.067-15.002c-2.462-0.683-4.662-3.324-4.888-5.868l-3.481-39.062c-0.226-2.544,1.679-4.626,4.233-4.626h4.935 c2.554,0,6.735,0,9.291,0h7.358c2.554,0,4.83,2.082,5.059,4.626l1.365,15.291c0.226,2.544,2.43,5.171,4.897,5.837l25.29,6.83 c2.465,0.666,4.493,1.212,4.505,1.212c0.011,0,2.038-0.546,4.505-1.212l25.336-6.846c2.465-0.666,4.67-3.294,4.899-5.837 l2.747-30.637c0.229-2.544-1.675-4.626-4.23-4.626h-28.491c-2.554,0-4.666,0-4.694,0c-0.028,0-2.141,0-4.696,0h-59.45 c-2.554,0-4.83-2.083-5.056-4.626l-6.741-75.538c-0.226-2.544-0.578-6.483-0.782-8.755c-0.202-2.27,1.723-4.127,4.277-4.127h67.752 c2.554,0,4.669,0,4.696,0c0.027,0,2.14,0,4.694,0h67.67C330.871,168.29,332.796,170.147,332.594,172.417z"/> </g></symbol><symbol id="css" viewBox="-50 0 505 506"><title>css</title><path d="m400.867188 115.875v379.480469c0 5.519531-4.460938 10-10 10h-376.359376c-5.539062 0-10-4.480469-10-10v-478c0-5.519531 4.460938-10 10-10h279.378907c2.679687 0 5.261719 1.058593 7.140625 2.980469l96.980468 98.519531c1.839844 1.878906 2.859376 4.402343 2.859376 7.019531zm0 0" fill="#1c868e"/><path d="m400.867188 115.875v379.480469c0 5.519531-4.460938 10-10 10h-345.9375c-5.523438 0-10-4.480469-10-10v-478c0-5.519531 4.476562-10 10-10h248.957031c2.679687 0 5.261719 1.058593 7.140625 2.980469l96.980468 98.519531c1.839844 1.878906 2.859376 4.402343 2.859376 7.019531zm0 0" fill="#40c4df"/><path d="m4.5 179.804688h396.375v245.773437h-396.375zm0 0" fill="#fff"/><path d="m4.507812 179.8125h30.421876v245.761719h-30.421876zm0 0" fill="#d8d6d7"/><path d="m37.195312 331.570312c-9.210937 0-16.417968 7.210938-16.417968 16.414063 0 9.207031 7.207031 16.417969 16.417968 16.417969 8.863282 0 16.078126-7.363282 16.078126-16.417969 0-9.050781-7.214844-16.414063-16.078126-16.414063zm0 0" fill="#40c4df"/><path d="m149.09375 322.964844c-5.097656 11.136718-14.890625 17.019531-28.320312 17.019531-20.480469 0-34.238282-15.089844-34.238282-37.546875 0-22.550781 13.761719-37.703125 34.238282-37.703125 13.441406 0 23.234374 5.929687 28.308593 17.152344l1.570313 3.476562h29.589844l-3.097657-8.039062c-8.925781-23.171875-30-37.007813-56.371093-37.007813-34.605469 0-60.703126 26.707032-60.703126 62.121094 0 35.234375 26.097657 61.804688 60.703126 61.804688 26.378906 0 47.453124-13.710938 56.367187-36.679688l3.125-8.046875h-29.59375zm0 0" fill="#40c4df"/><path d="m243.234375 290.398438c-14.796875-4.074219-21.28125-6.652344-21.28125-14.253907 0-3.34375 1.015625-6.027343 3.015625-7.980469 2.621094-2.550781 6.875-3.902343 12.097656-3.742187 9.699219.113281 14.8125 5.648437 15.464844 10.738281l.660156 5.164063h27.503906l-.675781-6.519531c-2.113281-20.34375-18.695312-33.488282-42.25-33.488282-24.898437 0-42.285156 14.929688-42.285156 36.300782 0 26.558593 21.742187 32.363281 37.617187 36.601562 15.117188 4.035156 21.742188 6.664062 21.742188 14.882812 0 7.621094-6.183594 12.351563-16.128906 12.351563-13.445313 0-16.292969-8.117187-16.792969-12.960937l-.550781-5.300782h-26.617188l.105469 6.015625c.371094 21.308594 18.40625 36.191407 43.855469 36.191407 27.859375 0 42.4375-18.578126 42.4375-36.925782 0-26.636718-21.917969-32.667968-37.917969-37.074218zm0 0" fill="#40c4df"/><path d="m346.683594 290.398438c-14.800782-4.074219-21.285156-6.652344-21.285156-14.253907 0-3.34375 1.015624-6.027343 3.019531-7.980469 2.621093-2.550781 6.863281-3.902343 12.097656-3.742187 9.695313.113281 14.8125 5.648437 15.460937 10.738281l.660157 5.164063h27.503906l-.675781-6.519531c-2.109375-20.34375-18.691406-33.488282-42.25-33.488282-24.894532 0-42.28125 14.929688-42.28125 36.300782 0 26.558593 21.742187 32.363281 37.617187 36.601562 15.113281 4.035156 21.742188 6.664062 21.742188 14.882812 0 7.621094-6.183594 12.351563-16.132813 12.351563-13.441406 0-16.289062-8.117187-16.792968-12.960937l-.546876-5.300782h-26.617187l.101563 6.015625c.375 21.308594 18.40625 36.191407 43.855468 36.191407 27.863282 0 42.441406-18.578126 42.441406-36.925782 0-26.636718-21.917968-32.667968-37.917968-37.074218zm0 0" fill="#40c4df"/><g fill="#491352"><path d="m400.855469 102.707031-96.984375-98.527343c-2.613282-2.65625-6.25-4.179688-9.976563-4.179688h-279.394531c-7.71875 0-14 6.28125-14 14v478c0 7.71875 6.28125 14 14 14h376.375c7.722656 0 14-6.28125 14-14 0-16.128906 0-362.933594 0-379.46875 0-3.695312-1.425781-7.183594-4.019531-9.824219zm-3.980469 389.292969c0 3.308594-2.691406 6-6 6h-376.375c-3.308594 0-6-2.691406-6-6v-65.773438h388.375zm0-73.773438h-388.375v-237.769531h388.375zm0-245.769531h-388.375v-158.457031c0-3.308594 2.691406-6 6-6h279.394531c1.597657 0 3.15625.652344 4.277344 1.792969l96.980469 98.527343c1.113281 1.132813 1.722656 2.628907 1.722656 4.210938zm0 0"/><path d="m37.195312 368.394531c11.070313 0 20.078126-9.160156 20.078126-20.417969 0-11.257812-9.007813-20.414062-20.078126-20.414062-11.453124 0-20.417968 8.96875-20.417968 20.414062 0 11.449219 8.964844 20.417969 20.417968 20.417969zm0-32.832031c6.660157 0 12.078126 5.570312 12.078126 12.414062 0 6.847657-5.417969 12.417969-12.078126 12.417969-16.460937 0-16.46875-24.832031 0-24.832031zm0 0"/><path d="m180.871094 329.003906 3.121094-8.046875c1.019531-2.613281-.914063-5.449219-3.726563-5.449219h-29.589844c-3.15625 0-3.84375 2.78125-5.21875 5.785157-10.703125 23.386719-54.921875 20.710937-54.921875-18.859375 0-20.472656 11.871094-33.703125 30.242188-33.703125 11.921875 0 20.21875 4.976562 24.664062 14.796875 3.582032 7.921875-.148437 5.828125 34.800782 5.828125 1.320312 0 2.554687-.652344 3.300781-1.738281.746093-1.085938.90625-2.46875.433593-3.703126l-3.097656-8.035156c-24.011718-62.34375-124.808594-49.226562-124.808594 26.550782 0 75.460937 100.820313 88.375 124.800782 26.574218zm-6.457032-47.648437h-21.179687c-15.261719-33.75-70.699219-26.46875-70.699219 21.078125 0 47.386718 55.433594 54.488281 70.707032 21.074218h21.179687c-22.714844 58.523438-110.351563 44.171876-110.351563-21.074218 0-65.332032 87.554688-80.277344 110.34375-21.078125zm0 0"/><path d="m238.710938 336.449219c-19.890626 0-8.328126-18.261719-17.339844-18.261719-33.347656 0-30.734375-2.375-30.511719 10.082031.929687 53.390625 94.289063 53.96875 94.289063-.800781 0-29.683594-25.132813-36.625-41.398438-41.105469l-.003906.015625c-15.1875-4.210937-17.796875-6.277344-17.796875-10.242187 0-6.070313 5-7.917969 11.070312-7.722657 7.304688.085938 11.105469 3.816407 11.542969 7.25l.660156 5.160157c.253906 1.996093 1.957032 3.492187 3.96875 3.492187h27.5c2.367188 0 4.222656-2.046875 3.980469-4.410156l-.679687-6.523438c-5.382813-51.855468-92.507813-48.457031-92.507813 3.226563 0 46.628906 59.359375 35.53125 59.359375 51.484375 0 7.539062-8.484375 8.355469-12.132812 8.355469zm-39.226563-59.839844c0-41.519531 72.21875-44.164063 76.554687-2.398437l.21875 2.109374h-19.546874c-2.796876-21.808593-38.761719-21.179687-38.761719-.179687 0 25.636719 59.199219 9.664063 59.199219 51.328125 0 43.0625-77.503907 45.574219-78.328126-1.28125h18.941407c1.324219 12.792969 9.175781 18.261719 20.949219 18.261719 12.230468 0 20.128906-6.417969 20.128906-16.351563.003906-27.171875-59.355469-9.394531-59.355469-51.488281zm0 0"/><path d="m342.160156 336.449219c-7.96875 0-12.160156-3.066407-12.8125-9.371094-.453125-4.351563-.15625-8.890625-4.527344-8.890625h-26.621093c-2.226563 0-4.039063 1.828125-4 4.070312l.105469 6.011719c.929687 53.390625 94.292968 53.96875 94.292968-.800781 0-29.683594-25.128906-36.605469-41.394531-41.085938-15.191406-4.210937-17.804687-6.277343-17.804687-10.242187 0-6.09375 5.003906-7.902344 11.070312-7.726563 7.304688.089844 11.101562 3.820313 11.542969 7.25.542969 4.265626.355469 8.65625 4.625 8.65625 34.597656 0 32.203125 2.519532 30.808593-10.933593-2.339843-22.523438-20.484374-37.074219-46.230468-37.074219-27.25 0-46.28125 16.570312-46.28125 40.296875 0 46.628906 59.359375 35.535156 59.359375 51.488281 0 7.535156-8.484375 8.351563-12.132813 8.351563zm-39.222656-59.839844c0-19.015625 15.742188-32.296875 38.28125-32.296875 19.855469 0 36.179688 9.75 38.488281 32.007812h-19.546875c-1.394531-10.882812-9.71875-15.785156-19.519531-15.902343-10.65625-.359375-19.242187 4.9375-19.242187 15.722656 0 25.664063 59.203124 9.582031 59.203124 51.328125 0 43.0625-77.507812 45.574219-78.332031-1.28125h18.941407c1.324218 12.792969 9.175781 18.261719 20.949218 18.261719 12.230469 0 20.128906-6.417969 20.128906-16.351563.003907-27.175781-59.351562-9.386718-59.351562-51.488281zm0 0"/></g></symbol><symbol id="sass" viewBox="0 0 512 512"><title>sass</title><g transform="translate(1 1)"> <polygon style="fill:#FFE100;" points="161.121,400.086 161.121,195.259 400.086,195.259 400.086,109.915 297.673,109.915 297.673,7.502 7.501,7.502 7.501,502.499 400.086,502.499 400.086,400.086 "/> <polygon style="fill:#FFA800;" points="374.482,502.499 400.086,502.499 400.086,109.915 374.482,109.915 "/> <polygon style="fill:#63D3FD;" points="50.174,400.086 502.499,400.086 502.499,195.259 50.174,195.259 "/> <polygon style="fill:#3DB9F9;" points="476.896,400.086 502.499,400.086 502.499,195.259 476.896,195.259 "/> <polygon style="fill:#FDCC00;" points="400.086,109.915 297.673,109.915 297.673,7.502 "/> <polygon style="fill:#FFFFFF;" points="7.501,502.499 33.104,502.499 33.104,7.502 7.501,7.502 "/> <path d="M400.105,118.415c-0.005,0-0.013,0-0.02,0H297.673c-4.695,0-8.501-3.806-8.501-8.501V7.502 c0-3.438,2.071-6.538,5.248-7.854c3.177-1.316,6.832-0.589,9.265,1.843l102.075,102.075c1.747,1.557,2.847,3.824,2.847,6.349 C408.606,114.61,404.8,118.415,400.105,118.415z M306.174,101.413h73.388l-73.388-73.388V101.413z"/> <path d="M502.499,408.587H50.174c-4.695,0-8.501-3.806-8.501-8.501V195.259c0-4.695,3.806-8.501,8.501-8.501h452.325 c4.695,0,8.501,3.806,8.501,8.501v204.826C511,404.78,507.194,408.587,502.499,408.587z M58.675,391.584h435.323V203.76H58.675 V391.584z"/> <path d="M118.448,374.449c-23.511,0-42.638-19.127-42.638-42.639c0-4.695,3.806-8.501,8.501-8.501s8.501,3.806,8.501,8.501 c0,14.137,11.5,25.637,25.636,25.637s25.637-11.5,25.637-25.637c0-14.136-11.501-25.636-25.637-25.636 c-23.511,0-42.638-19.127-42.638-42.64c0-23.511,19.127-42.638,42.638-42.638s42.64,19.127,42.64,42.638 c0,4.695-3.806,8.501-8.501,8.501s-8.501-3.806-8.501-8.501c0-14.136-11.501-25.636-25.637-25.636s-25.636,11.5-25.636,25.637 c0,14.137,11.5,25.637,25.636,25.637c23.511,0,42.64,19.127,42.64,42.638S141.96,374.449,118.448,374.449z"/> <path d="M400.085,511H7.501C2.806,511-1,507.193-1,502.499V7.502c0-4.695,3.806-8.501,8.501-8.501h290.171 c4.695,0,8.501,3.806,8.501,8.501v93.912h93.911c4.695,0,8.501,3.806,8.501,8.501v85.344c0,4.695-3.806,8.501-8.501,8.501H58.675 v187.824h341.411c4.695,0,8.501,3.806,8.501,8.501v102.413C408.586,507.193,404.78,511,400.085,511z M16.002,493.998h375.581 v-85.411H50.174c-4.695,0-8.501-3.806-8.501-8.501V195.259c0-4.695,3.806-8.501,8.501-8.501h341.411v-68.343h-93.911 c-4.695,0-8.501-3.806-8.501-8.501V16.002H16.002V493.998z"/> <path d="M331.81,374.449c-23.511,0-42.638-19.127-42.638-42.639c0-4.695,3.806-8.501,8.501-8.501s8.501,3.806,8.501,8.501 c0,14.137,11.5,25.637,25.636,25.637c14.137,0,25.637-11.5,25.637-25.637c0-14.136-11.5-25.636-25.637-25.636 c-23.511,0-42.638-19.127-42.638-42.64c0-23.511,19.127-42.638,42.638-42.638c23.512,0,42.64,19.127,42.64,42.638 c0,4.695-3.806,8.501-8.501,8.501s-8.501-3.806-8.501-8.501c0-14.136-11.5-25.636-25.637-25.636 c-14.136,0-25.636,11.5-25.636,25.636c0,14.137,11.5,25.637,25.636,25.637c23.512,0,42.64,19.127,42.64,42.638 C374.449,355.322,355.322,374.449,331.81,374.449z"/> <path d="M434.223,374.449c-23.512,0-42.639-19.127-42.639-42.639c0-4.695,3.806-8.501,8.501-8.501s8.501,3.806,8.501,8.501 c0,14.137,11.5,25.637,25.637,25.637c14.136,0,25.636-11.5,25.636-25.637c0-14.136-11.5-25.636-25.636-25.636 c-23.512,0-42.639-19.127-42.639-42.64c0-23.511,19.127-42.638,42.639-42.638c23.511,0,42.638,19.127,42.638,42.638 c0,4.695-3.806,8.501-8.501,8.501c-4.695,0-8.501-3.806-8.501-8.501c0-14.136-11.5-25.636-25.636-25.636 c-14.137,0-25.637,11.5-25.637,25.636c0,14.137,11.5,25.637,25.637,25.637c23.511,0,42.638,19.127,42.638,42.638 C476.862,355.322,457.734,374.449,434.223,374.449z"/> <path d="M272.069,374.451c-3.441,0.001-6.681-2.104-7.961-5.519l-42.515-113.375l-35.289,112.926 c-1.401,4.481-6.17,6.978-10.649,5.579c-4.482-1.4-6.979-6.169-5.579-10.649l42.673-136.552c1.083-3.465,4.248-5.861,7.877-5.962 c3.602-0.11,6.922,2.112,8.197,5.513l51.207,136.552c1.648,4.397-0.579,9.296-4.976,10.944 C274.07,374.276,273.062,374.451,272.069,374.451z"/> <path d="M252.867,323.243h-58.675c-4.695,0-8.501-3.806-8.501-8.501s3.806-8.501,8.501-8.501h58.675c4.696,0,8.5,3.806,8.5,8.501 S257.562,323.243,252.867,323.243z"/> </g></symbol><symbol id="pug" viewBox="-1 -74 512.00124 512"><title>pug</title><path d="m369.503906 342.359375h-227.007812c-17.464844 0-31.621094-14.15625-31.621094-31.621094 0-17.464843 14.15625-31.625 31.621094-31.625h227.007812c17.464844 0 31.621094 14.160157 31.621094 31.625 0 17.464844-14.15625 31.621094-31.621094 31.621094zm0 0" fill="#f72d2d"/><path d="m420.019531 77.675781v73.238281c0 6.9375-.972656 13.8125-2.863281 20.417969-1.902344 6.613281-4.714844 12.957031-8.382812 18.839844-3.675782 5.882813-6.488282 12.234375-8.378907 18.839844-1.890625 6.613281-2.863281 13.480469-2.863281 20.425781 0 14.101562-3.363281 27.429688-9.328125 39.207031-9.59375 18.949219-25.921875 33.90625-45.835937 41.726563-14.121094 5.542968-26.664063 14.328125-37.023438 25.402344-6.226562 6.648437-13.761719 12.011718-22.132812 15.703124-8.378907 3.695313-17.605469 5.722657-27.210938 5.722657-19.21875 0-36.886719-8.117188-49.339844-21.425781-10.363281-11.074219-22.90625-19.859376-37.023437-25.402344-16.148438-6.34375-29.945313-17.378906-39.695313-31.429688-2.269531-3.277344-4.324218-6.710937-6.144531-10.296875-5.964844-11.777343-9.324219-25.105469-9.324219-39.207031 0-13.964844-3.9375-27.652344-11.378906-39.480469-7.34375-11.679687-11.113281-25.25-11.113281-39.042969v-73.238281c0-38.753906 31.421875-70.175781 70.183593-70.175781h187.671876c38.765624 0 70.183593 31.421875 70.183593 70.175781zm0 0" fill="#fff0d0"/><path d="m420.019531 77.671875v73.238281c0 6.941406-.96875 13.820313-2.867187 20.421875-1.902344 6.609375-4.710938 12.957031-8.382813 18.839844-3.667969 5.886719-6.480469 12.238281-8.378906 18.839844-1.890625 6.617187-2.859375 13.476562-2.859375 20.429687 0 14.097656-3.359375 27.429688-9.332031 39.199219-9.589844 18.949219-25.917969 33.910156-45.828125 41.730469-14.121094 5.539062-26.671875 14.328125-37.03125 25.398437-6.21875 6.652344-13.757813 12.011719-22.128906 15.710938-8.378907 3.691406-17.601563 5.71875-27.210938 5.71875-18.867188 0-36.25-7.828125-48.660156-20.71875 5.761718 1.597656 11.820312 2.449219 18.03125 2.449219 9.609375 0 18.839844-2.03125 27.21875-5.71875 8.371094-3.699219 15.902344-9.0625 22.132812-15.710938 10.359375-11.070312 22.898438-19.859375 37.019532-25.398438 19.910156-7.820312 36.238281-22.78125 45.839843-41.730468 5.957031-11.78125 9.320313-25.101563 9.320313-39.199219 0-6.953125.976562-13.820313 2.867187-20.429687 1.890625-6.613282 4.699219-12.960938 8.382813-18.84375 3.667968-5.886719 6.476562-12.226563 8.378906-18.839844 1.890625-6.609375 2.859375-13.476563 2.859375-20.417969v-73.238281c0-19.152344-7.671875-36.511719-20.109375-49.171875 29.300781 8.429687 50.738281 35.429687 50.738281 67.441406zm0 0" fill="#ead2c1"/><path d="m388.199219 268.640625c-9.589844 18.949219-25.917969 33.910156-45.828125 41.730469-14.121094 5.539062-26.671875 14.328125-37.03125 25.398437-6.21875 6.652344-13.757813 12.011719-22.128906 15.710938-8.378907 3.691406-17.601563 5.71875-27.210938 5.71875-18.867188 0-36.25-7.828125-48.660156-20.71875-.230469-.230469-.457032-.46875-.679688-.710938-10.359375-11.070312-22.910156-19.859375-37.027344-25.398437-16.140624-6.339844-29.941406-17.382813-39.691406-31.429688-2.269531-3.28125-4.320312-6.710937-6.140625-10.300781l101.25-81.25c17.089844-17.089844 44.808594-17.089844 61.898438 0l72.78125 58.398437zm0 0" fill="#4d78a0"/><path d="m388.199219 268.640625c-9.589844 18.949219-25.917969 33.910156-45.828125 41.730469-14.121094 5.539062-26.671875 14.328125-37.03125 25.398437-6.21875 6.652344-13.757813 12.011719-22.128906 15.710938-8.378907 3.691406-17.601563 5.71875-27.210938 5.71875-18.867188 0-36.25-7.828125-48.660156-20.71875 5.761718 1.597656 11.820312 2.449219 18.03125 2.449219 9.609375 0 18.839844-2.03125 27.21875-5.71875 8.371094-3.699219 15.902344-9.0625 22.132812-15.710938 10.359375-11.070312 22.898438-19.859375 37.019532-25.398438 19.910156-7.820312 36.238281-22.78125 45.839843-41.730468.757813-1.5 1.480469-3.03125 2.148438-4.582032zm0 0" fill="#336786"/><path d="m330.65625 7.5h65.9375c29.070312 0 56.953125 11.550781 77.507812 32.105469l17.527344 17.527343c13.285156 13.285157 16.65625 33.550782 8.378906 50.421876l-9.511718 19.394531c-7.378906 15.050781-22.6875 24.59375-39.449219 24.59375h-28.789063c-17.476562 0-33.289062-10.355469-40.277343-26.375zm0 0" fill="#4d78a0"/><path d="m181.34375 7.5h-65.9375c-29.070312 0-56.949219 11.550781-77.507812 32.105469l-17.523438 17.527343c-13.289062 13.285157-16.65625 33.550782-8.382812 50.421876l9.511718 19.394531c7.382813 15.050781 22.6875 24.59375 39.453125 24.59375h28.785157c17.476562 0 33.289062-10.355469 40.277343-26.375zm0 0" fill="#4d78a0"/><path d="m351.753906 131.722656c0 11.363282-9.210937 20.574219-20.574218 20.574219-11.367188 0-20.578126-9.210937-20.578126-20.574219 0-11.363281 9.210938-20.578125 20.578126-20.578125 11.363281 0 20.574218 9.214844 20.574218 20.578125zm0 0" fill="#235872"/><path d="m202.242188 131.722656c0 11.363282-9.210938 20.574219-20.574219 20.574219s-20.574219-9.210937-20.574219-20.574219c0-11.363281 9.210938-20.578125 20.574219-20.578125s20.574219 9.214844 20.574219 20.578125zm0 0" fill="#235872"/><path d="m257.582031 186.894531h-3.164062c-16.039063 0-29.042969-13.003906-29.042969-29.042969 0-9.164062 7.429688-16.589843 16.589844-16.589843h28.070312c9.160156 0 16.589844 7.425781 16.589844 16.589843 0 16.039063-13.003906 29.042969-29.042969 29.042969zm0 0" fill="#8c482c"/><path d="m496.933594 51.828125-17.527344-17.527344c-22.121094-22.117187-51.53125-34.300781-82.8125-34.300781h-156.261719c-4.144531 0-7.5 3.359375-7.5 7.5 0 4.144531 3.355469 7.5 7.5 7.5h85.414063l16.679687 38.246094c1.65625 3.792968 6.078125 5.53125 9.875 3.875s5.53125-6.078125 3.875-9.875l-14.0625-32.246094h54.480469c27.273438 0 52.917969 10.621094 72.203125 29.910156l17.527344 17.523438c11.019531 11.019531 13.8125 27.824218 6.953125 41.816406l-9.515625 19.394531c-6.074219 12.390625-18.917969 20.394531-32.71875 20.394531h-28.785157c-14.496093 0-27.605468-8.582031-33.402343-21.871093l-19.628907-45c-1.65625-3.796875-6.074218-5.535157-9.875-3.875-3.792968 1.65625-5.53125 6.074219-3.875 9.871093l19.628907 45c6.804687 15.597657 20.753906 26.597657 37.027343 29.863282-.410156 3.800781-1.132812 7.558594-2.1875 11.230468-1.71875 5.976563-4.253906 11.679688-7.53125 16.9375-4.023437 6.441407-7.128906 13.421876-9.230468 20.753907-2.09375 7.3125-3.152344 14.882812-3.152344 22.488281 0 9.433594-1.605469 18.550781-4.78125 27.21875l-93.296875-74.867188c-1.285156-1.265624-2.648437-2.4375-4.050781-3.558593 1.445312-2.140625 2.660156-4.449219 3.628906-6.882813l36.949219 30.570313c1.398437 1.15625 3.09375 1.71875 4.777343 1.71875 2.15625 0 4.300782-.925781 5.78125-2.71875 2.640626-3.191407 2.195313-7.917969-.996093-10.558594l-44.277344-36.628906c-1.960937-11.328125-11.851563-19.972657-23.730469-19.972657h-28.070312c-11.878906 0-21.769532 8.648438-23.730469 19.972657l-44.277344 36.628906c-3.191406 2.640625-3.636719 7.367187-.996093 10.558594 1.480468 1.792969 3.625 2.71875 5.78125 2.71875 1.683593 0 3.378906-.5625 4.777343-1.71875l36.949219-30.570313c.972656 2.429688 2.1875 4.738282 3.628906 6.878906-1.402344 1.121094-2.765625 2.296876-4.046875 3.5625l-93.300781 74.871094c-3.175781-8.667968-4.777344-17.789062-4.777344-27.21875 0-15.414062-4.335937-30.445312-12.53125-43.476562-5.265625-8.371094-8.523437-17.929688-9.578125-27.933594 16.273438-3.265625 30.226563-14.265625 37.03125-29.863281l49.363281-113.167969h21.414063c4.140625 0 7.5-3.355469 7.5-7.5 0-4.140625-3.359375-7.5-7.5-7.5h-92.265625c-31.28125 0-60.6875 12.183594-82.8125 34.300781l-17.527344 17.527344c-15.554687 15.554687-19.496094 39.277344-9.808594 59.027344l9.511719 19.394531c8.578125 17.492188 26.707031 28.792969 46.1875 28.792969h23.933594c1.230469 12.476562 5.269531 24.433593 11.851563 34.90625 6.691406 10.636719 10.230468 22.910156 10.230468 35.492187 0 14.984375 3.410156 29.3125 10.136719 42.597656 1.082031 2.125 2.257813 4.222657 3.507813 6.285157-10.652344 7.179687-17.242188 19.226562-17.242188 32.414062 0 21.574219 17.550781 39.125 39.125 39.125h68.777344c12.855468 9.523438 28.570312 14.835938 44.722656 14.835938 10.496094 0 20.667969-2.140625 30.242188-6.359375 5.183593-2.285156 10.027343-5.136719 14.515624-8.476563h68.746094c21.574219 0 39.121094-17.550781 39.121094-39.125 0-13.183593-6.589844-25.234375-17.246094-32.417969 1.238282-2.046874 2.425782-4.136718 3.515625-6.289062 6.726563-13.277344 10.136719-27.605469 10.136719-42.589844 0-6.214844.863281-12.390625 2.574219-18.363281 1.714843-5.980469 4.246093-11.679687 7.535156-16.9375 4.015625-6.449219 7.117187-13.421875 9.222656-20.746094 1.34375-4.691406 2.253907-9.5 2.742188-14.351562h23.941406c19.480469 0 37.609375-11.300781 46.183594-28.789063l9.515625-19.398437c9.683594-19.75 5.742187-43.472657-9.8125-59.027344zm-468.695313 71.816406-9.515625-19.394531c-6.859375-13.992188-4.066406-30.796875 6.953125-41.816406l17.527344-17.523438c19.285156-19.289062 44.929687-29.910156 72.203125-29.910156h54.484375l-46.746094 107.167969c-5.796875 13.289062-18.90625 21.871093-33.402343 21.871093h-28.785157c-13.800781 0-26.644531-8.003906-32.71875-20.394531zm213.730469 25.117188h28.066406c5.015625 0 9.089844 4.078125 9.089844 9.089843 0 11.878907-9.664062 21.542969-21.542969 21.542969h-3.164062c-11.878907 0-21.542969-9.664062-21.542969-21.542969 0-5.011718 4.078125-9.089843 9.09375-9.089843zm38.21875 195.851562c-7.652344 3.375-15.789062 5.085938-24.1875 5.085938-16.546875 0-32.535156-6.945313-43.863281-19.050781-7.242188-7.738282-15.414063-14.351563-24.289063-19.648438-3.554687-2.121094-8.160156-.960938-10.28125 2.597656-2.125 3.554688-.964844 8.160156 2.59375 10.28125 5.25 3.136719 10.214844 6.820313 14.84375 10.980469h-52.507812c-13.300782 0-24.121094-10.820313-24.121094-24.121094 0-8.289062 4.214844-15.84375 11.007812-20.238281 5.730469 6.757812 12.375 12.667969 19.84375 17.628906 1.273438.847656 2.714844 1.253906 4.140626 1.253906 2.429687 0 4.8125-1.179687 6.253906-3.355468 2.292968-3.449219 1.355468-8.101563-2.097656-10.394532-8.453126-5.613281-15.65625-12.667968-21.414063-20.960937-.933594-1.351563-1.824219-2.738281-2.675781-4.144531l96.3125-77.285156c.210937-.171876.414062-.355469.609375-.546876 1.4375-1.441406 3-2.738281 4.644531-3.910156 4.039062 2.542969 8.605469 4.320313 13.5 5.121094v3.421875c-12.574219 2.617187-23.070312 11.707031-27.269531 24.246094-1.316407 3.929687.800781 8.179687 4.726562 9.496093 3.925781 1.316407 8.179688-.800781 9.496094-4.730468 2.960937-8.84375 11.222656-14.785156 20.546875-14.785156 9.328125 0 17.585938 5.941406 20.550781 14.785156 1.050781 3.136718 3.976563 5.121094 7.109375 5.121094.789063 0 1.59375-.128907 2.382813-.394532 3.929687-1.3125 6.046875-5.5625 4.730469-9.492187-4.199219-12.539063-14.695313-21.628907-27.269532-24.246094v-3.421875c4.894532-.800781 9.460938-2.578125 13.5-5.121094 1.644532 1.171875 3.207032 2.46875 4.644532 3.90625.195312.195313.398437.378906.609374.550782l96.3125 77.285156c-9.019531 14.902344-22.648437 26.460937-38.941406 32.863281-14.949218 5.863281-28.324218 15.035156-39.757812 27.253906-5.597656 5.976563-12.21875 10.675781-19.683594 13.96875zm113.4375-33.875c0 13.300781-10.820312 24.125-24.121094 24.125h-52.53125c8.425782-7.597656 17.859375-13.476562 28.136719-17.507812 14.648437-5.753907 27.488281-15.019531 37.515625-26.851563 6.785156 4.398438 11 11.953125 11 20.234375zm0 0"/><path d="m359.253906 131.722656c0-15.480468-12.59375-28.074218-28.074218-28.074218-15.480469 0-28.078126 12.59375-28.078126 28.074218 0 15.480469 12.597657 28.074219 28.078126 28.074219 15.480468 0 28.074218-12.59375 28.074218-28.074219zm-41.152344 0c0-7.210937 5.863282-13.074218 13.074219-13.074218 7.210938 0 13.078125 5.863281 13.078125 13.074218 0 7.210938-5.867187 13.074219-13.078125 13.074219-7.210937 0-13.074219-5.863281-13.074219-13.074219zm0 0"/><path d="m181.667969 103.648438c-15.480469 0-28.074219 12.59375-28.074219 28.074218 0 15.480469 12.59375 28.074219 28.074219 28.074219s28.074219-12.59375 28.074219-28.074219c0-15.480468-12.59375-28.074218-28.074219-28.074218zm0 41.148437c-7.210938 0-13.074219-5.863281-13.074219-13.074219 0-7.210937 5.863281-13.074218 13.074219-13.074218 7.210937 0 13.074219 5.863281 13.074219 13.074218 0 7.210938-5.863282 13.074219-13.074219 13.074219zm0 0"/><path d="m305.066406 304.519531c-2.640625-3.191406-7.367187-3.636719-10.558594-1l-12.335937 10.207031c-.183594.148438-.355469.308594-.523437.472657-6.851563 6.851562-15.957032 10.625-25.648438 10.625-9.6875 0-18.796875-3.773438-25.644531-10.625-.167969-.164063-.34375-.324219-.523438-.472657l-12.335937-10.207031c-3.191406-2.636719-7.921875-2.191406-10.5625 1-2.636719 3.191407-2.191406 7.917969 1 10.558594l12.074218 9.988281c9.652344 9.519532 22.421876 14.757813 35.992188 14.757813 13.574219 0 26.34375-5.238281 35.996094-14.757813l12.070312-9.988281c3.195313-2.640625 3.640625-7.367187 1-10.558594zm0 0"/></symbol><symbol id="git" viewBox="0 0 46.416 46.417"><title>git</title><path d="M5.739,36.142c4.242,2.753,13.104,2.654,16.857-0.847c0.807-0.752,0.215-3.896,0.215-4.835c0-2.911,0-5.822,0-8.733 c0-2.494-8.185-1.216-9.826-1.216c-0.078,0-0.161,0.012-0.246,0.034c-0.133,0.034-0.399,0.104-0.589,0.175 c-0.129,0.048-0.239,0.11-0.314,0.186c-1.045,1.044-0.963,3.798-0.598,5.16c0.1,0.373,0.62,0.728,1.01,0.728 c3.352,0,3.941,4.557,0.669,4.453c-6.212-0.198-5.484-10.679-3.499-14.3c2.177-3.972,6.106-1.13,9.189-1.147 c0.552-0.003,1.013-0.117,1.04-0.107c0.017,0.006,0.033,0.011,0.049,0.016c0.037,0.011,0.073,0.014,0.107,0.011 c0.06-0.005,0.058-0.038-0.004-0.05s-0.037-0.042,0.055-0.068c0.055-0.016,0.109-0.032,0.163-0.056 c0.974-0.42,2.169-4.813,1.603-5.482c-1.292-1.524-4.56-1.491-6.331-1.646C9.529,7.912,4.172,9.844,1.655,15.299 C-1.282,21.666-0.538,32.07,5.739,36.142z M2.356,20.625c0.042-0.551,0.418-1.304,0.817-1.686 c0.065-0.062,0.131-0.125,0.196-0.187c0.399-0.381,0.779-0.91,0.854-1.18c0.074-0.271-0.168-0.167-0.557,0.226 c-0.146,0.148-0.293,0.296-0.439,0.444c-0.389,0.393-0.699,0.67-0.694,0.621c0.004-0.03,0.007-0.061,0.011-0.091 c0.134-0.979,0.363-1.914,0.685-2.793c0.19-0.519,0.696-1.242,1.084-1.637c1.069-1.089,2.136-2.171,3.197-3.246 c0.389-0.393,1.11-0.9,1.635-1.074c0.433-0.143,0.887-0.259,1.363-0.344c0.367-0.065,0.739-0.113,1.116-0.146 c0.55-0.048,0.825-0.046,0.612-0.032s-0.584,0.232-0.83,0.479c-0.246,0.248-0.191,0.373,0.125,0.297 c0.316-0.077,0.727-0.277,0.911-0.464c0.185-0.186,0.783-0.346,1.335-0.323c0.34,0.014,0.679,0.037,1.018,0.067 c0.551,0.051,0.948,0.158,0.893,0.211c-0.055,0.055,0.291,0.101,0.77,0.117c0.479,0.019,1.036,0.075,1.246,0.117 c0.127,0.026,0.253,0.053,0.378,0.081c2.04,0.456,1.636,0.999,1.19,2.879c-0.496,2.092,0.429,1.536-1.639,1.116 c-1.31-0.267-2.764-0.32-4.095-0.198c-1.574,0.145-3.409,0.463-4.631,1.575c-3.514,3.197-4.462,12.641-0.211,15.699 c2.035,1.464,5.348,1.977,7.148,0.436c0.42-0.358,0.975-1.062,1.377-1.44c0.075-0.071,0.15-0.143,0.226-0.214 c0.401-0.379,0.727-0.699,0.727-0.718c0-0.018-0.319,0.281-0.715,0.667c-0.077,0.076-0.154,0.151-0.232,0.228 c-0.395,0.386-0.538,0.423-0.399,0.048c0.08-0.215,0.144-0.446,0.191-0.696c0.202-1.088,0.024-3.121-1.233-3.518 c-0.269-0.084-0.575-0.114-0.882-0.136c-0.492-0.031-0.818-0.143-0.734-0.222c0.086-0.079,0.154-0.225,0.154-0.325 c0-0.1-0.131-0.05-0.293,0.112c-0.161,0.162-0.561,0.233-0.727-0.017c-0.086-0.13-0.134-0.297-0.134-0.52 c0-0.235-0.032-0.572-0.064-0.949c-0.045-0.523,0.218-1.236,0.561-1.591c0.343-0.353,1.069-0.639,1.621-0.639 c0.486,0,0.973,0,1.459,0c0.553,0,0.923,0.077,0.828,0.172c-0.096,0.095-0.039,0.173,0.127,0.173s0.384-0.078,0.486-0.173 c0.102-0.095,0.21-0.173,0.242-0.173c0.019,0,0.037,0,0.057,0c0.374,0,0.688-0.01,0.954-0.02c0.527-0.017,0.871,0.104,0.771,0.196 c-0.1,0.093-0.016,0.169,0.188,0.169c0.204,0,0.454,0.336,0.466,0.76c0.006,0.214,0.007,0.469,0.007,0.769 c0,2.678,0,5.355,0,8.034c0,1.047,0,2.095,0,3.143c0,1.942-5.899,2.039-7.385,2.016c-4.065-0.063-6.812-1.63-8.573-4.022 C4.588,32.26,4.4,31.834,4.451,31.789c0.05-0.047-0.013-0.339-0.122-0.657s-0.235-0.53-0.295-0.471 c-0.036,0.037-0.072,0.073-0.108,0.107c-0.018,0.02-0.036,0.039-0.054,0.058c-0.029,0.032-0.245-0.339-0.438-0.848 c-0.191-0.508-0.196-1.053-0.045-1.202c0.151-0.15,0.268-0.303,0.262-0.341c-0.006-0.038-0.102,0.019-0.214,0.123 c-0.112,0.105-0.24,0.225-0.284,0.269c-0.043,0.044-0.149-0.15-0.229-0.437c-0.079-0.286,0.022-0.675,0.214-0.864 c0.192-0.19,0.319-0.62,0.293-0.963c-0.026-0.342-0.225-0.431-0.451-0.197c-0.227,0.233-0.471,0.07-0.529-0.364 s0.133-1.018,0.406-1.3c0.273-0.282,0.496-0.958,0.518-1.509c0.006-0.134,0.012-0.266,0.018-0.396 c0.029-0.551-0.198-0.733-0.529-0.407c-0.33,0.327-0.602,0.145-0.584-0.408C2.296,21.529,2.321,21.077,2.356,20.625z"/><path d="M31.762,13.534c-0.268-5.011-8.085-4.296-8.335,0.38c-0.116,2.165,1.331,3.302,3.051,3.53 c0.547,0.071,1.114,0.055,1.262,0.07c0.087,0.011,0.176,0.017,0.268,0.017c0.023,0,0.049-0.003,0.071-0.006 c0.04-0.007,0.037-0.029-0.003-0.06c-0.041-0.03,0.372-0.115,0.893-0.302c1.479-0.532,2.698-1.717,2.794-3.493 c0.001-0.014-0.003-0.024-0.008-0.034c-0.009-0.018-0.008-0.048,0-0.066C31.759,13.557,31.762,13.546,31.762,13.534z M25.431,14.146c-0.021-0.087-0.04-0.174-0.054-0.261c-0.034-0.21-0.035-0.424-0.01-0.637c0.044-0.352,0.444-0.918,0.804-1.285 c0.358-0.367,0.457-0.589,0.24-0.455c-0.216,0.134-0.101-0.072,0.374-0.258c0.274-0.107,0.579-0.146,0.905-0.093 c0.134,0.021,0.259,0.058,0.378,0.104c0.202,0.079,0.039,0.493-0.349,0.887c-0.506,0.515-1.013,1.028-1.519,1.543 C25.816,14.085,25.468,14.291,25.431,14.146z M29.628,14.96c-0.315,0.917-1.003,1.653-2.125,1.468 c-0.126-0.021-0.245-0.054-0.359-0.097c-0.192-0.073-0.326-0.17-0.313-0.181c0.013-0.012-0.052-0.168-0.122-0.359 c-0.068-0.191-0.178-0.281-0.269-0.192c-0.09,0.088-0.392-0.069-0.591-0.41c-0.199-0.34-0.02-0.9,0.324-1.216 c0.344-0.314,0.795-0.995,1.163-1.406c0.142-0.159,0.3-0.304,0.471-0.432c0.441-0.331,1.255-0.194,1.538,0.28 c0.11,0.187,0.203,0.387,0.275,0.594C29.804,13.529,29.807,14.437,29.628,14.96z"/><path d="M45.387,32.008c-1.45-0.185-3.438-0.5-3.438-2.293c0-0.897-0.355-5.938,0.984-5.938c0.842,0,1.994,0.179,2.664-0.496 c0.941-0.951,0.49-2.595,0.49-3.858c0-1.275-0.688-1.458-1.612-1.456c-0.553,0.001-1.452-0.078-1.892-0.413 c-1.572-1.203,0.364-3.397-1.013-4.632c-0.675-0.604-3.186-0.118-3.977-0.118c-3.206,0-3.271,0.613-3.271,3.77 c0,1.63-1.014,1.85-1.958,2.359c-0.485,0.264-0.817,0.231-0.958-0.178c-0.102-0.298-0.25-0.514-0.463-0.604 c-1.328-0.561-4.001-0.183-5.441-0.055c-1.256,0.111-1.816,0.625-1.816,1.81c0,2.812,0,5.627,0,8.44 c0,2.458-0.722,6.239,0.208,8.545c0.436,1.081,5.635,0.315,6.757-0.083c1.619-0.573,0.757-4.846,0.757-6.187 c0-2.323,0-4.646,0-6.97c0-0.052,0.002-0.112,0.006-0.182c0.006-0.1,0.332,0.144,0.816,0.408c1.124,0.615,2.094,0.527,2.094,2.836 c0,3.121-0.459,6.354,1.396,9.035c1.813,2.622,7.049,2.332,9.59,1.334C46.7,36.538,46.84,32.195,45.387,32.008z M27.877,36.384 c-0.203,0-0.389-0.009-0.557-0.024c-0.306-0.03-0.547-0.132-0.547-0.181s-0.031-0.056-0.068-0.018 c-0.038,0.038-0.312,0.01-0.555-0.165c-0.242-0.174-0.138-0.62,0.133-0.894c0.271-0.272,0.49-0.521,0.49-0.552 c0-0.032-0.226,0.179-0.504,0.472c-0.277,0.292-0.684,0.123-0.708-0.413c-0.025-0.536,0.282-1.26,0.613-1.613 c0.331-0.354,0.599-1.088,0.599-1.642c0-0.151,0-0.306,0-0.46c0-0.552-0.259-0.738-0.578-0.417 c-0.318,0.323-0.578,0.138-0.578-0.416c0-0.772,0-1.547,0-2.32c0-0.553,0.26-1.266,0.578-1.592 c0.319-0.326,0.578-0.743,0.578-0.932c0-0.188-0.259-0.104-0.578,0.187c-0.318,0.291-0.578,0.08-0.578-0.474 c0-0.44,0-0.882,0-1.322c0-0.553,0.26-1.246,0.578-1.549c0.319-0.303,0.578-0.599,0.578-0.663c0-0.063-0.26,0.14-0.579,0.451 c-0.319,0.312-0.577,0.118-0.577-0.435c0-0.676,0-1.353,0-2.028c0-0.104,0.002-0.19,0.004-0.263 c0.004-0.146,0.368-0.261,0.822-0.261c0.273,0,0.548,0,0.822,0c0.366,0,0.674-0.01,0.932-0.01c0.516,0,0.818,0.239,0.708,0.348 c-0.11,0.107-0.134,0.194-0.051,0.194s0.207-0.055,0.279-0.124c0.071-0.067,0.276,0.138,0.313,0.497 c0.02,0.182,0.027,0.397,0.027,0.655c0,3.572,0,7.144,0,10.715C29.476,33.144,30.423,36.384,27.877,36.384z M41.03,36.712 c-1.355-0.111-2.349-0.6-3.068-1.335c-0.388-0.395-0.537-0.864-0.439-0.96c0.099-0.097,0.145-0.299,0.107-0.454 s-0.165-0.176-0.293-0.044c-0.13,0.132-0.441-0.16-0.614-0.685c-0.104-0.312-0.188-0.64-0.257-0.976 c-0.109-0.542,0.095-1.24,0.396-1.551c0.302-0.312,0.548-1.003,0.548-1.546c0-0.542-0.258-0.722-0.574-0.402 c-0.317,0.32-0.558,0.223-0.529-0.218c0.025-0.44,0.284-1.035,0.576-1.33c0.292-0.294,0.527-0.635,0.527-0.761 c0-0.078,0-0.155,0-0.229c0-0.023-0.002-0.047-0.004-0.07c-0.003-0.039-0.233,0.172-0.516,0.471 c-0.282,0.298-0.487,0.092-0.507-0.46c-0.002-0.055-0.005-0.109-0.009-0.163c-0.028-0.552-0.012-1.109,0.123-1.254 c0.136-0.145,0.129-0.372-0.049-0.449c-0.107-0.047-0.222-0.074-0.341-0.074c-0.019,0-0.039,0-0.057,0 c-0.031,0-0.229-0.438-0.648-0.797c-0.438-0.374-1.06-0.595-1.94-0.595c-0.503,0-0.55-3.197,0.573-3.472 c0.533-0.132,1.269-0.518,1.538-0.98c0.084-0.145,0.157-0.286,0.222-0.426c0.108-0.242,0.498-0.732,0.895-1.083 c0.397-0.353,0.719-0.711,0.719-0.801c0-0.092-0.302,0.126-0.674,0.486s-0.559,0.232-0.512-0.301s0.356-1.279,0.756-1.661 c0.268-0.256,0.532-0.509,0.789-0.756c0.009-0.009,0.019-0.019,0.029-0.029c0.017-0.016-0.057-0.028-0.16-0.028 c-0.104,0-0.457,0.259-0.786,0.578c-0.329,0.318-0.595,0.564-0.595,0.55c0-0.016,0.247-0.272,0.551-0.575 c0.303-0.303,0.294-0.324-0.008-0.035c-0.303,0.29-0.544,0.426-0.545,0.303c-0.001-0.072-0.001-0.146-0.001-0.223 c0-0.13-0.015-0.24-0.038-0.333c-0.046-0.179,0.3-0.296,0.852-0.296c0.533,0,1.065,0,1.599,0c0.164,0,0.312,0.006,0.439,0.018 c0.242,0.022,0.352,0.157,0.251,0.254c-0.101,0.098-0.061,0.177,0.09,0.177c0.151,0,0.312-0.035,0.359-0.077 c0.048-0.043,0.322,0.319,0.29,0.871c-0.022,0.384-0.081,0.861-0.081,1.438c0.001,1.5,0.731,2.086,2.05,2.468 c0.087,0.031,0.208,0.05,0.385,0.05c2.375,0,1.705,1.453,1.705,3.407c0,0.117,0.02,0.213,0.048,0.288 c0.061,0.151,0.031,0.207-0.148,0.197c-0.093-0.005-0.201-0.008-0.329-0.008c-0.334,0-0.661-0.019-0.985,0.077 c-3.228,0.938-2.723,3.322-2.723,6.345c0,0.896-0.285,2.616,0.725,3.167c0.524,0.287,3.482,0.633,3.482,0.983 C44.22,36.165,44.385,36.987,41.03,36.712z"/></symbol><symbol id="github" viewBox="0 0 512 512"><title>github</title><path d="m462 10h-412c-22.089844 0-40 17.910156-40 40v412c0 22.089844 17.910156 40 40 40h412c22.089844 0 40-17.910156 40-40v-412c0-22.089844-17.910156-40-40-40zm0 0" fill="#709193"/><path d="m256 116c88.371094 0 160 71.628906 160 160 0 72.660156-48.429688 134.011719-114.78125 153.519531-3.277344-3.558593-5.1875-8.300781-5.21875-13.519531v-39.820312c.03125-18.308594-7.21875-23.140626-12.511719-31.21875 83.613281-12.480469 86.242188-89.359376 57.042969-123.941407-.453125-.519531-.859375-1.507812-.671875-2.070312 4.480469-13.539063 3.902344-43.359375-6.347656-42.890625-14.042969.652344-25.242188 8.5625-38.273438 16.3125-.988281.578125-1.777343.808594-2.929687.5-11.980469-3.25-24.089844-5.011719-36.308594-5.160156-12.21875.148437-24.328125 1.910156-36.308594 5.160156-1.152344.308594-1.941406.078125-2.929687-.5-13.03125-7.75-24.230469-15.660156-38.273438-16.3125-10.25-.46875-10.828125 29.351562-6.347656 42.890625.1875.5625-.21875 1.550781-.671875 2.070312-29.199219 34.582031-26.570312 111.460938 57.042969 123.941407-5.292969 8.078124-12.542969 12.910156-12.511719 31.21875v39.820312c-.03125 5.21875-1.941406 9.960938-5.21875 13.519531-66.351562-19.507812-114.78125-80.859375-114.78125-153.519531 0-88.371094 71.628906-160 160-160zm0 0" fill="#f0f0fa"/><path d="m386 53c0 5.523438-4.476562 10-10 10s-10-4.476562-10-10 4.476562-10 10-10 10 4.476562 10 10zm0 0"/><path d="m256 106c-93.738281 0-170 76.261719-170 170 0 94.644531 76.878906 170 170 170 93.324219 0 170-75.488281 170-170 0-93.738281-76.261719-170-170-170zm-30.792969 316.820312c.507813-2.207031.78125-4.492187.792969-6.820312v-39.835938c-.023438-14.582031 5.058594-16.84375 10.875-25.726562 1.867188-2.851562 2.152344-6.457031.761719-9.570312-1.394531-3.109376-4.277344-5.296876-7.648438-5.796876-39.667969-5.921874-55.238281-26.371093-61.316406-42.480468-8.09375-21.460938-3.808594-48.222656 10.417969-65.09375 2.164062-2.542969 4.101562-7.113282 2.546875-11.6875-3.035157-9.167969-2.5625-23.8125-.671875-29.476563 8.617187 1.261719 16.667968 6.144531 25.839844 11.710938 5.308593 3.226562 9.082031 6.203125 15.503906 4.476562 11.222656-3.042969 22.558594-4.660156 33.691406-4.808593 11.136719.144531 22.472656 1.765624 33.710938 4.8125 6.382812 1.722656 10.28125-1.320313 15.484374-4.480469 9.175782-5.566407 17.226563-10.453125 25.84375-11.710938 1.890626 5.660157 2.363282 20.300781-.644531 29.394531-1.582031 4.652344.351563 9.226563 2.515625 11.769532 14.230469 16.867187 18.515625 43.632812 10.417969 65.09375-6.074219 16.109375-21.644531 36.558594-61.3125 42.476562-3.371094.503906-6.253906 2.691406-7.648437 5.800782-1.394532 3.113281-1.109376 6.71875.757812 9.570312 5.804688 8.863281 10.902344 11.125 10.878906 25.742188v39.875c.011719 2.304687.28125 4.574218.785156 6.765624-10.074218 2.101563-20.382812 3.179688-30.789062 3.179688s-20.71875-1.078125-30.792969-3.179688zm80.902344-5.402343c-.0625-.464844-.105469-.933594-.109375-1.417969v-39.804688c.019531-11.476562-2.503906-18.941406-5.628906-24.539062 30.347656-8.203125 51.976562-26.308594 61.667968-52.007812 10.238282-27.144532 5.59375-59.59375-11.449218-82.058594 3.105468-13.667969 3.015625-35.253906-4.425782-45.070313-3.328124-4.394531-7.976562-6.671875-13.117187-6.449219-15.636719.722657-27.6875 8.527344-40.8125 16.441407-12.011719-3.039063-24.144531-4.652344-36.113281-4.800781-.082032-.003907-.160156-.003907-.242188 0-11.972656.144531-24.113281 1.761718-36.113281 4.800781-13.023437-7.851563-25.109375-15.714844-40.816406-16.441407-5.117188-.234374-9.78125 2.054688-13.113281 6.449219-7.429688 9.800781-7.53125 31.335938-4.421876 45.0625-17.042968 22.464844-21.691406 54.921875-11.453124 82.066407 9.691406 25.699218 31.320312 43.804687 61.667968 52.003906-2.46875 4.421875-4.554687 10.015625-5.316406 17.816406-12.367188 4.324219-22.378906 1.472656-29.175781-9.980469-7.949219-13.371093-21.417969-24.15625-36.855469-22.824219-5.503906.476563-9.578125 5.324219-9.101562 10.824219.472656 5.503907 5.335937 9.585938 10.824218 9.105469 7.148438-.621094 14.199219 6.824219 17.9375 13.109375 10.6875 18.011719 28 24.441406 46.058594 20.578125v25.660156c-.003906.503906-.046875.992188-.113281 1.472656-59.199219-21.003906-99.886719-78.019531-99.886719-141.414062 0-82.710938 67.289062-150 150-150s150 67.289062 150 150c0 63.394531-40.6875 120.410156-99.890625 141.417969zm0 0"/><path d="m462 0h-412c-27.570312 0-50 22.429688-50 50v412c0 27.570312 22.429688 50 50 50h412c27.570312 0 50-22.429688 50-50v-412c0-27.570312-22.429688-50-50-50zm30 462c0 16.542969-13.457031 30-30 30h-412c-16.542969 0-30-13.457031-30-30v-412c0-16.542969 13.457031-30 30-30h412c16.542969 0 30 13.457031 30 30zm0 0"/><path d="m136 63h200c5.523438 0 10-4.476562 10-10s-4.476562-10-10-10h-200c-5.523438 0-10 4.476562-10 10s4.476562 10 10 10zm0 0"/></symbol><symbol id="js" viewBox="0 -10 650.001 650"><title>js</title><path d="M 482.257812 178.226562 L 10.484375 178.226562 L 10.484375 450.804688 L 639.515625 450.804688 L 639.515625 178.226562 Z M 304.03125 356.453125 C 304.03125 379.613281 285.257812 398.386719 262.097656 398.386719 C 238.9375 398.386719 220.160156 379.613281 220.160156 356.453125 C 220.160156 379.613281 238.9375 398.386719 262.097656 398.386719 C 285.257812 398.386719 304.03125 379.613281 304.03125 356.453125 Z M 366.933594 314.515625 L 408.867188 314.515625 C 420.449219 314.515625 429.835938 323.90625 429.835938 335.484375 L 429.835938 377.417969 C 429.835938 389 420.449219 398.386719 408.867188 398.386719 C 420.449219 398.386719 429.835938 389 429.835938 377.417969 L 429.835938 335.484375 C 429.835938 323.90625 420.449219 314.515625 408.867188 314.515625 L 366.933594 314.515625 C 355.355469 314.515625 345.964844 305.128906 345.964844 293.546875 L 345.964844 251.613281 C 345.964844 240.035156 355.355469 230.644531 366.933594 230.644531 C 355.355469 230.644531 345.964844 240.035156 345.964844 251.613281 L 345.964844 293.546875 C 345.96875 305.128906 355.355469 314.515625 366.933594 314.515625 Z M 366.933594 314.515625 " style=" fill-rule:nonzero;fill:rgb(100%,58.823529%,48.235294%);fill-opacity:1;"/><path d="M 167.742188 450.804688 L 482.257812 450.804688 L 482.257812 503.226562 L 167.742188 503.226562 Z M 167.742188 450.804688 " style=" stroke:none;fill-rule:nonzero;fill:rgb(100%,86.27451%,82.745098%);fill-opacity:1;"/><path d="M 167.742188 125.804688 L 482.257812 125.804688 L 482.257812 178.226562 L 167.742188 178.226562 Z M 167.742188 125.804688 " style=" stroke:none;fill-rule:nonzero;fill:rgb(100%,86.27451%,82.745098%);fill-opacity:1;"/><path d="M 209.675781 83.871094 L 440.320312 83.871094 L 440.320312 104.839844 L 209.675781 104.839844 Z M 209.675781 83.871094 " style=" stroke:none;fill-rule:nonzero;fill:rgb(13.72549%,12.156863%,12.54902%);fill-opacity:1;"/><path d="M 241.128906 52.417969 L 408.871094 52.417969 L 408.871094 73.386719 L 241.128906 73.386719 Z M 241.128906 52.417969 " style=" stroke:none;fill-rule:nonzero;fill:rgb(13.72549%,12.156863%,12.54902%);fill-opacity:1;"/><path d="M 209.675781 524.195312 L 440.320312 524.195312 L 440.320312 545.160156 L 209.675781 545.160156 Z M 209.675781 524.195312 " style=" stroke:none;fill-rule:nonzero;fill:rgb(13.72549%,12.156863%,12.54902%);fill-opacity:1;"/><path d="M 241.128906 555.644531 L 408.871094 555.644531 L 408.871094 576.613281 L 241.128906 576.613281 Z M 241.128906 555.644531 " style=" stroke:none;fill-rule:nonzero;fill:rgb(13.72549%,12.156863%,12.54902%);fill-opacity:1;"/><path d="M 649.820312 177.34375 C 649.757812 176.632812 649.613281 175.929688 649.402344 175.25 C 649.230469 174.617188 648.992188 174.007812 648.699219 173.425781 C 648.402344 172.855469 648.050781 172.316406 647.652344 171.808594 C 647.210938 171.246094 646.714844 170.726562 646.175781 170.257812 C 645.933594 170.070312 645.808594 169.796875 645.554688 169.617188 L 545.160156 99.375 L 545.160156 10.484375 C 545.160156 4.695312 540.464844 0 534.675781 0 L 115.320312 0 C 109.53125 0 104.839844 4.695312 104.839844 10.484375 L 104.839844 99.378906 L 4.476562 169.617188 C 4.222656 169.796875 4.097656 170.070312 3.855469 170.257812 C 3.316406 170.726562 2.820312 171.25 2.378906 171.808594 C 1.980469 172.316406 1.628906 172.855469 1.332031 173.425781 C 1.035156 174.007812 0.800781 174.621094 0.628906 175.25 C 0.414062 175.929688 0.273438 176.632812 0.210938 177.347656 C 0.125 177.636719 0.0546875 177.929688 0 178.226562 L 0 450.804688 C 0 456.597656 4.695312 461.289062 10.484375 461.289062 L 104.839844 461.289062 L 104.839844 618.546875 C 104.839844 624.339844 109.53125 629.03125 115.324219 629.03125 L 534.679688 629.03125 C 540.46875 629.03125 545.160156 624.339844 545.160156 618.546875 L 545.160156 461.289062 L 639.515625 461.289062 C 645.308594 461.289062 650 456.597656 650 450.804688 L 650 178.226562 C 649.957031 177.929688 649.894531 177.636719 649.820312 177.34375 Z M 606.261719 167.742188 L 545.160156 167.742188 L 545.160156 124.976562 Z M 524.191406 20.96875 L 524.191406 167.742188 L 492.742188 167.742188 L 492.742188 125.804688 C 492.742188 120.015625 488.046875 115.324219 482.257812 115.324219 L 167.742188 115.324219 C 161.949219 115.324219 157.257812 120.015625 157.257812 125.804688 L 157.257812 167.742188 L 125.804688 167.742188 L 125.804688 20.96875 Z M 178.226562 167.742188 L 178.226562 136.289062 L 471.773438 136.289062 L 471.773438 167.742188 Z M 104.839844 167.742188 L 43.738281 167.742188 L 104.839844 124.976562 Z M 524.191406 608.066406 L 125.804688 608.066406 L 125.804688 461.289062 L 157.257812 461.289062 L 157.257812 503.226562 C 157.257812 509.015625 161.949219 513.710938 167.742188 513.710938 L 482.257812 513.710938 C 488.046875 513.710938 492.742188 509.015625 492.742188 503.226562 L 492.742188 461.289062 L 524.191406 461.289062 Z M 471.773438 461.289062 L 471.773438 492.742188 L 178.226562 492.742188 L 178.226562 461.289062 Z M 629.03125 440.324219 L 20.96875 440.324219 L 20.96875 188.710938 L 629.03125 188.710938 Z M 629.03125 440.324219 " style=" stroke:none;fill-rule:nonzero;fill:rgb(13.72549%,12.156863%,12.54902%);fill-opacity:1;"/><path d="M 304.03125 220.160156 C 298.242188 220.160156 293.546875 224.855469 293.546875 230.644531 L 293.546875 356.453125 C 293.546875 373.820312 279.464844 387.902344 262.09375 387.902344 C 244.722656 387.902344 230.644531 373.824219 230.644531 356.453125 C 230.644531 350.660156 225.949219 345.96875 220.160156 345.96875 C 214.367188 345.96875 209.675781 350.660156 209.675781 356.453125 C 209.675781 385.402344 233.144531 408.871094 262.09375 408.871094 C 291.042969 408.871094 314.511719 385.402344 314.511719 356.453125 L 314.511719 230.644531 C 314.515625 224.855469 309.820312 220.160156 304.03125 220.160156 Z M 304.03125 220.160156 " style=" stroke:none;fill-rule:nonzero;fill:rgb(13.72549%,12.156863%,12.54902%);fill-opacity:1;"/><path d="M 366.933594 241.128906 L 429.835938 241.128906 C 435.628906 241.128906 440.320312 236.433594 440.320312 230.644531 C 440.320312 224.855469 435.628906 220.160156 429.835938 220.160156 L 366.933594 220.160156 C 349.5625 220.160156 335.480469 234.242188 335.480469 251.613281 L 335.480469 293.546875 C 335.480469 310.917969 349.5625 325 366.933594 325 L 408.867188 325 C 414.660156 325 419.351562 329.695312 419.351562 335.484375 L 419.351562 377.417969 C 419.351562 383.210938 414.660156 387.902344 408.867188 387.902344 L 345.964844 387.902344 C 340.175781 387.902344 335.480469 392.597656 335.480469 398.386719 C 335.480469 404.175781 340.175781 408.871094 345.964844 408.871094 L 408.867188 408.871094 C 426.238281 408.871094 440.320312 394.789062 440.320312 377.417969 L 440.320312 335.484375 C 440.320312 318.113281 426.238281 304.03125 408.867188 304.03125 L 366.933594 304.03125 C 361.144531 304.03125 356.449219 299.339844 356.449219 293.546875 L 356.449219 251.613281 C 356.449219 245.824219 361.144531 241.128906 366.933594 241.128906 Z M 366.933594 241.128906 " style=" stroke:none;fill-rule:nonzero;fill:rgb(13.72549%,12.156863%,12.54902%);fill-opacity:1;"/></symbol><symbol id="js-1" viewBox="-71 0 1064 1064.001"><title>js-1</title><path d="m17.734375 975.332031c0 39.175781 31.757813 70.933594 70.933594 70.933594h744.800781c39.171875 0 70.933594-31.757813 70.933594-70.933594v-35.464843h-886.667969zm0 0" fill="#bcbec0"/><path d="m762.535156 17.734375h-673.867187c-39.175781 0-70.933594 31.757813-70.933594 70.929687v461.070313h886.667969v-390.132813h-141.867188zm0 0" fill="#bcbec0"/><path d="m762.535156 159.601562h141.867188l-141.867188-141.867187zm0 0" fill="#939598"/><path d="m17.734375 939.867188h886.667969v-390.132813h-886.667969zm585.199219-195.066407h-70.933594c-19.585938 0-35.464844-15.878906-35.464844-35.46875v-70.933593c0-19.585938 15.878906-35.464844 35.464844-35.464844-19.585938 0-35.464844 15.878906-35.464844 35.464844v70.933593c0 19.589844 15.878906 35.46875 35.464844 35.46875h70.933594c19.589844 0 35.46875 15.878907 35.46875 35.464844v70.933594c0 19.589843-15.878906 35.46875-35.46875 35.46875 19.589844 0 35.46875-15.878907 35.46875-35.46875v-70.933594c0-19.585937-15.878906-35.464844-35.46875-35.464844zm-248.265625 141.867188c39.175781 0 70.933593-31.757813 70.933593-70.933594 0 39.175781-31.757812 70.933594-70.933593 70.933594s-70.933594-31.757813-70.933594-70.933594c0 39.175781 31.757813 70.933594 70.933594 70.933594zm0 0" fill="#ffe477"/><path d="m921.972656 159.601562c.0625-4.683593-1.753906-9.199218-5.035156-12.539062l-141.867188-141.867188c-3.34375-3.277343-7.855468-5.082031-12.535156-5.019531v-.175781h-673.867187c-48.945313.0585938-88.6093752 39.722656-88.667969 88.667969v886.667969c.0585938 48.941406 39.722656 88.605468 88.667969 88.664062h744.800781c48.945312-.058594 88.605469-39.722656 88.664062-88.664062zm-141.707031-99.058593 81.328125 81.324219h-81.328125zm-691.597656-25.074219h656.132812v124.132812c0 9.792969 7.941407 17.730469 17.734375 17.730469h124.132813v354.667969h-851.199219v-443.332031c0-29.382813 23.816406-53.199219 53.199219-53.199219zm798 886.664062h-851.199219v-354.664062h851.199219zm-53.199219 106.398438h-744.800781c-29.382813 0-53.199219-23.816406-53.199219-53.199219v-17.730469h851.199219v17.730469c0 29.382813-23.820313 53.199219-53.199219 53.199219zm0 0"/><path d="m354.667969 904.398438c48.945312-.058594 88.609375-39.71875 88.667969-88.664063v-212.800781c0-9.792969-7.941407-17.734375-17.734376-17.734375-9.792968 0-17.734374 7.941406-17.734374 17.734375v212.800781c0 29.378906-23.816407 53.199219-53.199219 53.199219-29.382813 0-53.199219-23.820313-53.199219-53.199219 0-9.796875-7.9375-17.734375-17.734375-17.734375-9.792969 0-17.730469 7.941406-17.730469 17.734375.054688 48.945313 39.71875 88.605469 88.664063 88.664063zm0 0"/><path d="m602.933594 868.933594h-106.398438c-9.792968 0-17.734375 7.9375-17.734375 17.730468 0 9.796876 7.941407 17.734376 17.734375 17.734376h106.398438c29.382812 0 53.199218-23.816407 53.199218-53.199219v-70.933594c0-29.382813-23.816406-53.199219-53.199218-53.199219h-70.933594c-9.792969 0-17.730469-7.9375-17.730469-17.734375v-70.933593c0-9.792969 7.9375-17.730469 17.730469-17.730469h106.402344c9.792968 0 17.730468-7.941407 17.730468-17.734375 0-9.792969-7.9375-17.734375-17.730468-17.734375h-106.402344c-29.378906 0-53.199219 23.820312-53.199219 53.203125v70.933594c0 29.378906 23.820313 53.199218 53.199219 53.199218h70.933594c9.792968 0 17.734375 7.9375 17.734375 17.730469v70.933594c0 9.792969-7.941407 17.734375-17.734375 17.734375zm0 0"/></symbol><symbol id="php" viewBox="-6 0 512 512"><title>php</title><path d="m110.046875 71.027344v-61.023438h280.113281l100.039063 100.042969v391.949219h-380.152344v-270.902344" fill="#f7f7f7"/><path d="m290.117188 91.765625v118.589844c0 11.453125-9.28125 20.738281-20.734376 20.738281h-238.640624c-11.453126 0-20.738282-9.285156-20.738282-20.738281v-118.589844c0-11.453125 9.285156-20.738281 20.738282-20.738281h238.640624c11.453126 0 20.734376 9.285156 20.734376 20.738281zm0 0" fill="#ffa3bf"/><path d="m490.199219 110.046875h-100.039063v-100.042969zm0 0" fill="#b9b9b9"/><path d="m500.1875 109.710938c-.003906-.113282-.007812-.230469-.015625-.347657-.03125-.417969-.078125-.832031-.15625-1.234375-.003906-.015625-.003906-.03125-.007813-.042968-.085937-.441407-.210937-.867188-.351562-1.289063-.027344-.078125-.058594-.15625-.085938-.234375-.148437-.390625-.3125-.773438-.503906-1.140625-.015625-.027344-.027344-.058594-.039062-.085937-.207032-.386719-.445313-.753907-.699219-1.109376-.058594-.082031-.121094-.164062-.183594-.242187-.265625-.351563-.546875-.6875-.859375-1-.003906-.003906-.007812-.007813-.011718-.011719l-100.039063-100.042968c-.003906-.003907-.011719-.007813-.015625-.011719-.308594-.308594-.644531-.589844-.996094-.855469-.082031-.0625-.164062-.125-.246094-.183594-.351562-.253906-.71875-.492187-1.105468-.699218-.03125-.015626-.0625-.027344-.09375-.042969-.363282-.1875-.742188-.351563-1.132813-.5-.078125-.027344-.15625-.058594-.238281-.085938-.417969-.144531-.84375-.265625-1.285156-.355469-.015625 0-.027344-.003906-.042969-.003906-.402344-.078125-.816406-.1249998-1.238281-.1562498-.113282-.0078124-.226563-.0117187-.34375-.015625-.113282-.0078124-.222656-.0195312-.335938-.0195312h-280.113281c-5.527344 0-10.003906 4.480469-10.003906 10.003906v51.019532h-69.300781c-16.953126 0-30.742188 13.792968-30.742188 30.742187v118.59375c0 16.949219 13.789062 30.738281 30.742188 30.738281h69.300781v260.898438c0 5.523437 4.476562 10.003906 10.003906 10.003906h380.152344c5.527343 0 10.007812-4.480469 10.007812-10.003906v-391.949219c0-.113281-.015625-.222656-.019531-.335937zm-100.023438-75.554688 65.882813 65.886719h-65.882813zm-280.113281 457.835938v-250.894532h14.488281c5.527344 0 10.003907-4.480468 10.003907-10.003906s-4.476563-10.003906-10.003907-10.003906h-103.796874c-5.917969 0-10.734376-4.8125-10.734376-10.734375v-118.589844c0-5.917969 4.816407-10.730469 10.734376-10.730469h238.640624c5.917969 0 10.734376 4.8125 10.734376 10.730469v118.59375c0 5.917969-4.816407 10.730469-10.734376 10.730469h-54.808593c-5.527344 0-10.003907 4.480468-10.003907 10.007812 0 5.523438 4.476563 10.003906 10.003907 10.003906h54.808593c16.949219 0 30.742188-13.792968 30.742188-30.742187v-118.59375c0-16.949219-13.792969-30.742187-30.742188-30.742187h-149.332031v-41.015626h260.105469v90.039063c0 5.523437 4.480469 10.003906 10.003906 10.003906h90.035156v371.941407zm0 0"/><path d="m70.027344 101.042969h-20.007813c-5.523437 0-10.003906 4.480469-10.003906 10.003906v80.035156c0 5.523438 4.480469 10.003907 10.003906 10.003907 5.527344 0 10.003907-4.480469 10.003907-10.003907v-30.011719h10.003906c16.550781 0 30.015625-13.464843 30.015625-30.011718 0-16.550782-13.464844-30.015625-30.015625-30.015625zm0 40.019531h-10.003906v-20.011719h10.003906c5.519531 0 10.003906 4.488281 10.003906 10.007813 0 5.515625-4.484375 10.003906-10.003906 10.003906zm0 0"/><path d="m160.066406 191.082031c0 5.523438 4.476563 10.003907 10.003906 10.003907 5.523438 0 10.003907-4.480469 10.003907-10.003907v-80.035156c0-5.523437-4.480469-10.003906-10.003907-10.003906-5.527343 0-10.003906 4.480469-10.003906 10.003906v30.015625h-20.007812v-30.015625c0-5.523437-4.480469-10.003906-10.003906-10.003906-5.527344 0-10.003907 4.480469-10.003907 10.003906v80.035156c0 5.523438 4.476563 10.003907 10.003907 10.003907 5.523437 0 10.003906-4.480469 10.003906-10.003907v-30.011719h20.007812zm0 0"/><path d="m210.085938 201.085938c5.527343 0 10.003906-4.480469 10.003906-10.003907v-30.011719h10.003906c16.550781 0 30.011719-13.464843 30.011719-30.011718 0-16.550782-13.460938-30.015625-30.011719-30.015625h-20.007812c-5.523438 0-10.003907 4.480469-10.003907 10.003906v80.035156c0 5.523438 4.480469 10.003907 10.003907 10.003907zm10.003906-80.035157h10.003906c5.515625 0 10.003906 4.488281 10.003906 10.007813 0 5.515625-4.488281 10.003906-10.003906 10.003906h-10.003906zm0 0"/><path d="m231.09375 321.027344h200.082031c5.523438 0 10.003907-4.476563 10.003907-10.003906 0-5.523438-4.480469-10.003907-10.003907-10.003907h-200.082031c-5.523438 0-10.003906 4.480469-10.003906 10.003907 0 5.527343 4.480468 10.003906 10.003906 10.003906zm0 0"/><path d="m194.773438 361.152344c2.5625 0 5.121093-.980469 7.074218-2.929688 3.90625-3.910156 3.90625-10.242187 0-14.152344l-22.632812-22.632812 23.242187-23.242188c3.90625-3.90625 3.90625-10.238281 0-14.148437-3.90625-3.90625-10.238281-3.90625-14.148437 0l-30.316406 30.316406c-3.90625 3.910157-3.90625 10.242188 0 14.152344l29.707031 29.707031c1.957031 1.949219 4.515625 2.929688 7.074219 2.929688zm0 0"/><path d="m412.851562 384.089844c-3.910156-3.90625-10.242187-3.90625-14.148437 0s-3.90625 10.242187 0 14.148437l22.632813 22.632813-23.242188 23.242187c-3.90625 3.90625-3.90625 10.242188 0 14.148438 1.953125 1.953125 4.511719 2.929687 7.074219 2.929687 2.558593 0 5.117187-.976562 7.070312-2.929687l30.320313-30.316407c3.90625-3.90625 3.90625-10.242187 0-14.148437zm0 0"/><path d="m371.152344 341.035156h-140.058594c-5.523438 0-10.003906 4.480469-10.003906 10.003906 0 5.527344 4.480468 10.007813 10.003906 10.007813h140.058594c5.523437 0 10.003906-4.480469 10.003906-10.007813 0-5.523437-4.480469-10.003906-10.003906-10.003906zm0 0"/><path d="m371.152344 381.054688h-140.058594c-5.523438 0-10.003906 4.476562-10.003906 10.003906 0 5.523437 4.480468 10.003906 10.003906 10.003906h140.058594c5.523437 0 10.003906-4.480469 10.003906-10.003906 0-5.527344-4.480469-10.003906-10.003906-10.003906zm0 0"/><path d="m371.152344 420.964844h-200.082032c-5.527343 0-10.003906 4.480468-10.003906 10.003906s4.476563 10.003906 10.003906 10.003906h200.082032c5.523437 0 10.003906-4.480468 10.003906-10.003906s-4.480469-10.003906-10.003906-10.003906zm0 0"/><path d="m178.054688 221.421875c-.613282-.25-1.242188-.441406-1.871094-.570313-1.292969-.261718-2.621094-.261718-3.914063 0-.640625.128907-1.269531.320313-1.871093.570313-.609376.25-1.1875.558594-1.730469.917969-.550781.359375-1.058594.78125-1.519531 1.242187-.460938.46875-.878907.980469-1.242188 1.519531-.359375.550782-.667969 1.132813-.917969 1.730469-.25.601563-.441406 1.230469-.570312 1.871094-.128907.648437-.199219 1.300781-.199219 1.960937 0 .648438.070312 1.300782.199219 1.949219.128906.640625.320312 1.273438.570312 1.871094.25.601563.558594 1.183594.917969 1.730469.363281.542968.78125 1.050781 1.242188 1.523437 1.859374 1.859375 4.441406 2.929688 7.074218 2.929688.648438 0 1.308594-.070313 1.960938-.199219.628906-.128906 1.257812-.320312 1.871094-.570312.597656-.25 1.179687-.558594 1.71875-.921876.550781-.359374 1.0625-.777343 1.519531-1.238281.460937-.472656.882812-.980469 1.25-1.519531.363281-.550781.671875-1.132812.921875-1.734375.25-.597656.441406-1.226563.570312-1.867187.128906-.652344.191406-1.300782.191406-1.953126 0-.660156-.0625-1.308593-.191406-1.960937-.128906-.640625-.320312-1.269531-.570312-1.867187-.25-.601563-.558594-1.183594-.921875-1.734376-.367188-.539062-.789063-1.046874-1.25-1.519531-.457031-.460937-.96875-.878906-1.519531-1.238281-.539063-.363281-1.121094-.671875-1.71875-.921875zm0 0"/></symbol><symbol id="computer" viewBox="1 -14 511.999 511"><title>computer</title><path d="m475.3125 406.820312h-438.628906v-277.476562c0-12.4375 10.082031-22.519531 22.519531-22.519531h393.59375c12.4375 0 22.519531 10.082031 22.519531 22.519531v277.476562zm0 0" fill="#e7e7e7"/><path d="m475.316406 129.347656v277.472656h-27.117187v-277.472656c0-12.441406-10.078125-22.523437-22.519531-22.523437h27.117187c12.429687 0 22.519531 10.078125 22.519531 22.523437zm0 0" fill="#cecece"/><path d="m435.828125 406.820312h-359.65625v-256.148437c0-4.582031 3.714844-8.296875 8.296875-8.296875h343.0625c4.582031 0 8.292969 3.714844 8.292969 8.296875v256.148437zm0 0" fill="#c9f0ff"/><path d="m435.828125 150.671875v256.148437h-26.3125v-256.148437c0-4.578125-3.714844-8.300781-8.300781-8.300781h26.3125c4.585937 0 8.300781 3.722656 8.300781 8.300781zm0 0" fill="#9ae7fd"/><path d="m479.914062 476.375h-447.828124c-13.554688 0-24.542969-10.988281-24.542969-24.542969v-45.011719h496.914062v45.011719c0 13.554688-10.988281 24.542969-24.542969 24.542969zm0 0" fill="#838383"/><path d="m504.457031 406.820312v45.011719c0 13.550781-10.984375 24.542969-24.542969 24.542969h-22.433593c13.550781 0 24.535156-10.992188 24.535156-24.542969v-45.011719zm0 0" fill="#5a5a5a"/><path d="m272.09375 406.820312h-99.578125l11.757813 26.910157c.800781 1.832031 2.609374 3.015625 4.609374 3.015625h134.234376c2 0 3.808593-1.183594 4.609374-3.015625l11.757813-26.910157zm0 0" fill="#acacac"/><path d="m339.484375 406.820312-11.757813 26.90625c-.804687 1.832032-2.605468 3.019532-4.605468 3.019532h-16.222656c.160156-.25.3125-.511719.429687-.792969l12.726563-29.132813zm0 0" fill="#9c9c9c"/><path d="m226.410156 101.222656h-110.417968v-86.183594c0-3.886718 3.152343-7.039062 7.039062-7.039062h96.339844c3.886718 0 7.039062 3.152344 7.039062 7.039062zm0 0" fill="#83e5eb"/><path d="m226.410156 101.222656h-19.570312v-93.222656h12.53125c3.890625 0 7.039062 3.152344 7.039062 7.039062zm0 0" fill="#5cdae2"/><path d="m115.992188 101.570312h110.417968v93.222657h-110.417968zm0 0" fill="#80e0dc"/><path d="m206.839844 101.570312h19.570312v93.222657h-19.570312zm0 0" fill="#00a8b0"/><path d="m304.261719 177.824219-78.078125-78.078125 60.941406-60.941406c2.75-2.75 7.207031-2.75 9.957031 0l68.121094 68.121093c2.75 2.75 2.75 7.207031 0 9.957031zm0 0" fill="#ffe1a8"/><path d="m304.261719 177.824219-13.839844-13.839844 65.917969-65.917969 8.863281 8.859375c2.75 2.75 2.75 7.207031 0 9.957031zm0 0" fill="#ffd98f"/><path d="m225.9375 99.988281 78.078125 78.078125-65.917969 65.917969-78.078125-78.078125zm0 0" fill="#ffd86e"/><path d="m290.175781 164.226562 13.839844 13.839844-65.917969 65.917969-13.839844-13.839844zm0 0" fill="#ffb509"/><path d="m115.992188 235.167969v-4.726563c0-29.183594 23.660156-52.847656 52.847656-52.847656h220.128906c3.886719 0 7.039062 3.152344 7.039062 7.042969v96.335937c0 3.890625-3.152343 7.042969-7.039062 7.042969h-220.128906c-29.1875 0-52.847656-23.660156-52.847656-52.847656zm0 0" fill="#e7e7e7"/><path d="m302.785156 288.015625v-110.421875h86.183594c3.886719 0 7.039062 3.152344 7.039062 7.042969v96.335937c0 3.890625-3.152343 7.042969-7.039062 7.042969zm0 0" fill="#ff9aa9"/><path d="m302.785156 288.015625v-19.574219h93.222656v12.53125c0 3.890625-3.152343 7.042969-7.039062 7.042969zm0 0" fill="#ff7a8e"/><path d="m209.214844 177.59375h93.222656v110.421875h-93.222656zm0 0" fill="#ff6b81"/><path d="m209.214844 268.441406h93.222656v19.574219h-93.222656zm0 0" fill="#ff435f"/><path d="m179.8125 232.804688c0 10.097656-8.1875 18.28125-18.28125 18.28125-10.097656 0-18.28125-8.183594-18.28125-18.28125 0-10.09375 8.183594-18.28125 18.28125-18.28125 10.09375 0 18.28125 8.1875 18.28125 18.28125zm0 0" fill="#838383"/><path d="m504.457031 399.277344h-21.597656v-269.933594c0-16.578125-13.488281-30.0625-30.0625-30.0625h-84.632813l-65.777343-65.78125c-2.746094-2.746094-6.398438-4.257812-10.28125-4.257812-3.886719 0-7.539063 1.511718-10.285157 4.257812l-47.910156 47.910156v-66.371094c0-8.015624-6.519531-14.539062-14.539062-14.539062h-96.335938c-8.019531 0-14.542968 6.523438-14.542968 14.539062v84.242188h-49.289063c-16.574219 0-30.0625 13.484375-30.0625 30.0625v269.933594h-21.597656c-4.164063 0-7.542969 3.378906-7.542969 7.542968v45.011719c0 17.691407 14.394531 32.085938 32.085938 32.085938h447.828124c17.691407 0 32.085938-14.394531 32.085938-32.085938v-45.011719c0-4.164062-3.378906-7.542968-7.542969-7.542968zm-212.351562-354.84375 67.46875 67.472656-55.3125 55.3125-67.472657-67.472656zm18.222656 140.707031h78.136719v95.328125h-78.136719zm-84.390625-74.542969 59.457031 59.453125h-110.621093l-4.144532-4.144531zm68.957031 74.542969v95.328125h-78.136719v-95.328125zm-93.222656 0v95.328125h-32.832031c-24.980469 0-45.304688-20.320312-45.304688-45.300781v-4.726563c0-24.980468 20.324219-45.304687 45.304688-45.304687h32.832031zm-78.179687-169.640625h95.417968v78.222656h-95.417968zm0 93.570312h82.761718l-51.535156 51.53125-20.160156 20.160157c-2.820313 1.953125-5.460938 4.140625-7.90625 6.53125h-3.160156zm45.347656 186.488282h133.597656c.058594 0 .117188-.007813.171875-.007813.058594 0 .117187.007813.175781.007813h86.179688c8.042968 0 14.585937-6.542969 14.585937-14.585938v-96.335937c0-8.042969-6.542969-14.585938-14.585937-14.585938h-66.324219l20.132813-20.132812h84.757812c.414062 0 .75.335937.75.75v82.035156c0 4.167969 3.378906 7.542969 7.542969 7.542969 4.167969 0 7.546875-3.375 7.546875-7.542969v-82.035156c0-8.734375-7.105469-15.835938-15.839844-15.835938h-69.671875l12.644531-12.644531c2.15625-2.15625 3.539063-4.871094 4.039063-7.820312h78.253906c8.253906 0 14.972656 6.71875 14.972656 14.976562v269.933594h-24.398437v-119.394532c0-4.167968-3.378906-7.546874-7.546875-7.546874-4.164063 0-7.542969 3.378906-7.542969 7.546874v119.394532h-344.5625v-248.609375c0-.414063.335938-.75.75-.75h24.023438v78.3125c-.027344.734375-.042969 1.472656-.042969 2.210937v4.726563c0 33.300781 27.089843 60.390625 60.390625 60.390625zm-124.609375-166.214844c0-8.257812 6.714843-14.976562 14.972656-14.976562h49.289063v20.464843h-24.023438c-8.734375 0-15.839844 7.105469-15.839844 15.835938v248.609375h-24.398437zm452.679687 322.488281c0 9.375-7.625 16.996094-16.996094 16.996094h-447.828124c-9.375 0-16.996094-7.625-16.996094-16.996094v-37.464843h152.488281l9.78125 22.382812c2 4.582031 6.523437 7.539062 11.523437 7.539062h15.148438c4.167969 0 7.542969-3.375 7.542969-7.542968 0-4.167969-3.375-7.542969-7.542969-7.542969h-13.503906l-6.484375-14.835937h143.914062l-6.484375 14.835937h-70.835937c-4.167969 0-7.542969 3.375-7.542969 7.542969 0 4.167968 3.375 7.542968 7.542969 7.542968h72.480469c5 0 9.523437-2.960937 11.523437-7.539062l9.78125-22.382812h152.488281zm0 0"/><path d="m135.75 232.804688c0 14.21875 11.5625 25.78125 25.78125 25.78125 14.214844 0 25.78125-11.5625 25.78125-25.78125 0-14.214844-11.566406-25.78125-25.78125-25.78125-14.21875 0-25.78125 11.566406-25.78125 25.78125zm36.5625 0c0 5.945312-4.835938 10.78125-10.78125 10.78125s-10.78125-4.835938-10.78125-10.78125c0-5.941407 4.835938-10.78125 10.78125-10.78125s10.78125 4.835937 10.78125 10.78125zm0 0"/></symbol><symbol id="svg" viewBox="-40 0 512 512.00035"><title>svg</title><path d="m313.039062 8.074219h-241.460937c-11.035156 0-19.984375 8.945312-19.984375 19.980469v456.472656c0 11.035156 8.949219 19.980468 19.984375 19.980468h333.390625c11.035156 0 19.980469-8.945312 19.980469-19.980468v-372.921875zm0 0" fill="#e7e7e7"/><path d="m424.953125 111.605469v372.925781c0 11.027344-8.949219 19.980469-19.980469 19.980469h-26.046875c11.039063 0 19.980469-8.953125 19.980469-19.980469v-397.019531zm0 0" fill="#cecece"/><path d="m313.039062 8.074219v83.832031c0 11.035156 8.945313 19.980469 19.980469 19.980469h91.929688zm0 0" fill="#acacac"/><path d="m258.421875 257.558594h-232.023437c-10.441407 0-18.90625-8.464844-18.90625-18.90625v-89.492188c0-10.441406 8.464843-18.90625 18.90625-18.90625h232.023437c10.441406 0 18.90625 8.464844 18.90625 18.90625v89.492188c0 10.441406-8.464844 18.90625-18.90625 18.90625zm0 0" fill="#ff6b81"/><path d="m277.324219 149.164062v89.492188c0 10.441406-8.460938 18.902344-18.902344 18.902344h-20.152344c10.441407 0 18.902344-8.460938 18.902344-18.902344v-89.492188c0-10.441406-8.460937-18.914062-18.902344-18.914062h20.152344c10.441406 0 18.902344 8.472656 18.902344 18.914062zm0 0" fill="#ff435f"/><path d="m430.039062 106.105469c-14.675781-13.582031-29.355468-27.15625-44.03125-40.734375-20.183593-18.671875-40.820312-36.964844-60.601562-56.0625-6.859375-6.625-9.035156-8.597656-19.070312-8.867188-13.667969-.3671872-27.34375-.457031-41.015626-.43749975-27.363281.03515625-54.71875.57812475-82.082031.57812475-37.222656 0-74.441406 0-111.660156 0-15.152344 0-27.476563 12.324219-27.476563 27.472657v21.890624c0 4.140626 3.355469 7.492188 7.492188 7.492188 4.140625 0 7.496094-3.351562 7.496094-7.492188v-21.890624c0-6.886719 5.601562-12.488282 12.488281-12.488282h233.96875v76.339844c0 15.148438 12.324219 27.472656 27.472656 27.472656h84.4375v365.148438c0 6.886718-5.601562 12.488281-12.488281 12.488281h-333.390625c-6.886719 0-12.488281-5.601563-12.488281-12.488281v-219.476563h126.164062c4.136719 0 7.492188-3.351562 7.492188-7.492187s-3.355469-7.492188-7.492188-7.492188h-158.855468c-6.292969 0-11.414063-5.121094-11.414063-11.414062v-89.492188c0-6.292968 5.121094-11.414062 11.414063-11.414062h232.023437c6.292969 0 11.414063 5.121094 11.414063 11.414062v89.492188c0 6.292968-5.121094 11.414062-11.414063 11.414062h-26.878906c-4.140625 0-7.492188 3.351563-7.492188 7.492188s3.351563 7.492187 7.492188 7.492187h26.878906c14.558594 0 26.398437-11.839843 26.398437-26.398437v-89.492188c0-14.558594-11.839843-26.402344-26.398437-26.402344h-199.332031v-27.289062c0-4.136719-3.355469-7.492188-7.496094-7.492188-4.136719 0-7.492188 3.355469-7.492188 7.492188v27.289062h-17.703124c-14.554688 0-26.398438 11.84375-26.398438 26.402344v89.492188c0 14.554687 11.84375 26.398437 26.398438 26.398437h17.703124v219.476563c0 15.148437 12.324219 27.472656 27.476563 27.472656h333.390625c15.148438 0 27.472656-12.324219 27.472656-27.472656v-372.921875c0-2.089844-.871094-4.082031-2.402344-5.5zm-97.019531-1.710938c-6.886719 0-12.488281-5.601562-12.488281-12.488281v-66.660156l85.324219 79.148437zm0 0"/><path d="m94.128906 209.460938c0-17.230469-31.632812-10.511719-31.632812-33.871094 0-14.40625 12.066406-18.6875 22.480468-18.6875 6.328126 0 17.714844 1.652344 17.714844 7.007812 0 1.945313-1.359375 5.546875-4.28125 5.546875-2.628906 0-5.160156-3.699219-13.433594-3.699219-7.105468 0-12.167968 2.726563-12.167968 8.859376 0 14.402343 31.636718 7.882812 31.636718 33.773437 0 13.917969-9.34375 20.730469-22.191406 20.730469-12.65625 0-21.511718-6.617188-21.511718-11.484375 0-2.335938 2.042968-5.546875 4.476562-5.546875 3.503906 0 5.839844 7.6875 16.644531 7.6875 7.007813 0 12.265625-3.308594 12.265625-10.316406zm0 0"/><path d="m109.113281 162.351562c-.097656-.292968-.097656-.582031-.097656-.875 0-2.53125 3.605469-4.285156 6.425781-4.285156 1.75 0 3.113282.585938 3.601563 2.144532l16.058593 55.476562 15.964844-55.476562c.488282-1.558594 1.847656-2.144532 3.503906-2.144532 2.917969 0 6.519532 1.851563 6.519532 4.285156 0 .292969-.09375.582032-.195313.875l-19.269531 63.070313c-.683594 2.339844-3.601562 3.503906-6.523438 3.503906-2.917968 0-5.742187-1.167969-6.519531-3.503906zm0 0"/><path d="m189.898438 166.34375c-7.300782 0-11.484376 3.988281-11.484376 12.554688v28.324218c0 8.566406 4.183594 12.554688 11.484376 12.554688 7.203124 0 11.582031-3.988282 11.582031-12.554688v-7.980468h-9.832031c-2.140626 0-3.308594-2.046876-3.308594-4.1875 0-1.945313 1.167968-4.085938 3.308594-4.085938h16.742187c2.140625 0 3.40625 1.652344 3.40625 3.5v12.75c0 15.769531-9.636719 21.707031-21.898437 21.707031-12.363282 0-21.804688-5.9375-21.804688-21.707031v-28.324219c0-15.765625 9.636719-21.703125 21.511719-21.703125 13.042969 0 22.191406 7.007813 22.191406 18.007813 0 3.988281-1.75 4.964843-5.160156 4.964843-2.722657 0-5.058594-.878906-5.15625-3.410156-.585938-5.640625-3.113281-10.410156-11.582031-10.410156zm0 0"/></symbol><symbol id="sass-1" viewBox="0 0 512 512"><title>sass-1</title><path  d="M512,256c0,7.91-0.355,15.726-1.066,23.448c-0.543,6.113-1.317,12.152-2.299,18.119 C488.782,419.182,383.227,512,256,512c-64.805,0-123.977-24.074-169.075-63.781c-16.666-14.66-31.41-31.462-43.802-49.977 C15.882,357.564,0,308.632,0,256C0,114.615,114.615,0,256,0S512,114.615,512,256z"/><path style="fill:#CD6699;" d="M446.767,284.975c-7.764,2.936-7.45,2.988-11.557-4.493c-5.245-9.529-8.035-19.55-8.276-30.448 c-0.199-9.352,2.361-18.045,5.58-26.572c2.57-6.781-0.773-9.174-6.646-9.791c-4.274-0.439-8.683-0.397-12.967,0.042 c-11.139,1.139-12.236,2.1-15.193,12.915c-1.755,6.416-3.156,12.884-6.071,18.975c-7.189,14.994-15.36,29.435-23.74,43.771 c-1.505,2.581-2.748,5.36-4.869,7.565c-6.071-9.091-8.359-19.132-8.871-29.665c-0.512-10.397,2.675-20.062,6.175-29.623 c1.181-3.218,0.199-5.214-2.581-6.604c-1.233-0.616-2.612-1.191-3.96-1.296c-7.147-0.564-14.273-0.481-21.243,1.473 c-3.135,0.867-5.183,2.623-5.883,6.144c-1.358,6.886-3.479,13.573-6.343,20.01c-7.941,17.826-15.83,35.683-23.761,53.52 c-6.896,15.496-13.688,31.033-21.859,45.913c-0.575,1.055-1.055,2.884-2.497,2.518c-1.463-0.366-0.951-2.163-1.014-3.396 c-0.47-8.777,1.923-17.147,3.96-25.527c3.229-13.26,6.76-26.457,10.188-39.675c0.982-3.793-0.669-6.343-3.814-8.161 c-4.524-2.602-9.028-2.727-13.928,0.919c0.669-5.392,0.961-10.125,0.731-14.858c-0.522-10.553-5.413-17.418-13.928-19.007 c-6.217-1.16-12.1,0.648-17.659,3.281c-12.957,6.134-23.374,15.381-32.131,26.603c-1.024,1.306-2.058,2.508-3.542,3.312 c-16.436,8.955-32.862,17.91-49.256,26.948c-1.797,1.003-2.957,0.721-4.253-0.669c-8.255-8.85-17.836-16.154-27.324-23.562 c-13.26-10.365-26.979-20.187-38.421-32.684c-6.687-7.314-12.267-15.329-15.057-25.004c-4.556-15.82-1.149-30.553,6.437-44.554 c8.976-16.562,22.288-29.351,36.968-40.741c23.312-18.077,48.88-32.434,75.828-44.251c30.177-13.218,61.482-21.734,94.824-20.449 c13.208,0.512,26.028,2.8,37.794,9.268c8.328,4.577,13.845,11.191,15.402,20.898c1.829,11.368-0.899,21.87-5.945,31.828 c-11.274,22.246-29.194,38.003-50.375,50.343c-17.638,10.271-36.665,16.792-56.801,20.208c-11.128,1.891-22.298,3.03-33.489,1.327 c-12.842-1.954-24.712-6.248-33.499-16.593c-1.014-1.191-2.299-2.017-4.023-1.181c-1.766,0.857-1.63,2.424-1.463,3.929 c0.125,1.034,0.408,2.079,0.773,3.062c2.351,6.343,6.75,11.128,11.901,15.308c13.396,10.898,29.268,14.096,45.934,14.42 c16.311,0.324,32.371-1.745,48.264-5.548c35.85-8.568,65.881-26.154,87.803-56.289c13.103-18.014,21.4-37.867,20.668-60.583 c-0.47-14.409-5.319-27.136-15.82-37.48c-12.487-12.278-27.982-18.453-44.607-22.162c-18.516-4.117-37.219-4.702-56.111-2.445 c-16.436,1.964-32.496,5.329-48.128,10.71c-23.918,8.244-47.02,18.369-69.13,30.678c-22.653,12.601-44.001,27.032-62.725,45.108 c-16.572,15.997-30.814,33.646-38.839,55.557c-3.427,9.383-5.893,19.028-3.594,29.174c2.947,13.061,9.383,24.367,17.847,34.565 c12.8,15.444,28.505,27.606,44.701,39.225c13.009,9.341,26.624,17.847,39.121,27.888c3.542,2.842,3.521,2.842-0.648,5.026 c-4.869,2.539-9.791,4.984-14.576,7.69C91.951,342.695,73.3,354.523,58.075,370.96c-7.492,8.098-12.581,17.189-14.952,27.282 c12.392,18.516,27.136,35.318,43.802,49.977c28.432-2.215,50.197-17.011,66.278-41.482c7.764-11.818,11.4-25.192,12.769-39.299 c1.202-12.434-0.063-24.472-3.72-36.342c-0.637-2.09-3.009-4.169-2.079-6.008c0.867-1.693,3.48-2.55,5.402-3.657 c7.753-4.504,15.527-8.944,23.51-13.531c0.345,1.714-0.324,2.717-0.616,3.803c-4.577,16.792-7.764,33.719-4.284,51.169 c2.163,10.867,5.768,21.096,12.622,30.093c7.053,9.258,22.8,8.202,29.194-0.251c6.071-8.025,10.094-17.074,14.284-26.081 c2.299-4.932,4.409-9.947,6.604-14.932c-0.408,5.998-0.387,11.849-0.167,17.68c0.219,5.747,1.139,11.421,4.127,16.499 c3.594,6.102,10.355,7.879,16.635,4.618c6.625-3.438,11.139-9.101,14.649-15.245c15.057-26.425,29.027-53.415,40.594-81.596 c2.466-5.987,4.995-11.964,7.785-18.62c0.428,2.184,0.711,3.521,0.972,4.859c2.57,13.427,7.147,26.133,13.772,38.076 c1.421,2.56,1.264,4.326-0.533,6.781c-6.102,8.307-12.79,16.123-19.383,24.022c-5.538,6.646-11.463,12.999-16.144,20.313 c-4.2,6.583-1.787,13.322,5.204,14.817c2.152,0.46,4.42,0.596,6.625,0.564c12.215-0.146,23.489-3.793,33.991-9.77 c14.137-8.056,22.518-19.864,22.131-36.676c-0.178-7.649-2.247-14.994-5.329-22.006c-0.679-1.557-0.711-2.685,0.303-4.148 c9.791-14.023,18.442-28.724,26.394-43.854c1.411-2.664,2.403-5.622,4.681-8.223c0.303,1.055,0.543,1.714,0.679,2.393 c2.529,12.539,5.935,24.795,12.33,35.986c1.755,3.062,0.878,4.618-1.546,6.666c-8.349,7.095-15.391,15.37-20.919,24.848 c-4.305,7.377-7.252,15.255-7.22,23.897c0.031,9.613,7.387,15.276,16.76,13.019c9.77-2.341,18.829-6.322,26.958-12.267 c17.711-12.967,22.904-26.645,17.356-45.735c-2.173-7.513-2.132-7.387,5.402-9.665c16.478-4.974,33.196-5.183,49.998-2.445 c1.902,0.313,3.783,0.669,5.642,1.076c0.982-5.966,1.755-12.006,2.299-18.119C489.441,274.192,467.978,276.919,446.767,284.975z M98.586,419.401c-4.775,1.693-9.738,2.414-14.817,2.017c-6.322-0.502-10.334-4.963-10.742-11.672 c-0.46-7.732,1.829-14.712,5.214-21.504c6.154-12.33,16.488-20.699,27.032-28.912c10.25-7.993,21.264-14.817,32.402-21.452 c3.375-2.006,3.427-1.985,4.2,2.038c1.003,5.162,1.902,10.334,1.567,15.026C144.321,383.08,123.883,410.446,98.586,419.401z M251.956,277.514c-1.776,11.86-5.653,23.155-9.78,34.314c-5.622,15.235-11.097,30.542-18.171,45.192 c-1.62,3.375-3.323,6.729-5.945,9.477c-2.476,2.602-4.671,2.299-6.384-0.878c-3.344-6.207-2.926-13.113-3.469-18.129 c0.157-25.161,8.6-45.725,22.507-64.209c3.887-5.151,8.85-9.341,15.423-11.024C250.598,271.12,252.656,272.917,251.956,277.514z M349.341,352.005c-4.765,8.234-11.63,14.221-20.052,18.484c-0.899,0.449-2.058,1.243-2.873,0.188 c-0.773-0.993,0.47-1.651,1.034-2.278c8.37-9.143,16.635-18.359,24.085-28.275c0.115-0.157,0.397-0.178,1.034-0.449 C352.496,344.263,351.493,348.296,349.341,352.005z M407.134,351.65c-1.243,0.585-2.685,1.682-3.897,0.742 c-1.337-1.034-0.805-2.863-0.397-4.263c1.902-6.384,4.462-12.497,7.993-18.192c2.967-4.796,6.646-8.986,10.689-12.894 c1.63-1.567,2.361-1.379,2.915,0.878c0.575,2.309,0.627,4.618,0.669,6.969C425.002,337.753,418.471,346.311,407.134,351.65z"/></symbol><symbol id="css-3" viewBox="0 0 512 512"><title>css-3</title><path style="fill:#FFFFFF;" d="M256,508C117.048,508,4,394.952,4,256S117.048,4,256,4s252,113.048,252,252S394.952,508,256,508z"/><path  d="M256,8c136.744,0,248,111.256,248,248S392.744,504,256,504S8,392.744,8,256S119.256,8,256,8 M256,0 C114.616,0,0,114.616,0,256s114.616,256,256,256s256-114.616,256-256S397.384,0,256,0L256,0z"/><g style="opacity:0.5;"> <path style="fill:#FFFFFF;" d="M256,483.832c-125.632,0-227.832-102.2-227.832-227.832S130.368,28.168,256,28.168 c125.624,0,227.832,102.2,227.832,227.832S381.624,483.832,256,483.832z"/> <path style="fill:#999999;" d="M256,30.168c124.528,0,225.832,101.312,225.832,225.832S380.528,481.832,256,481.832 S30.168,380.528,30.168,256S131.472,30.168,256,30.168 M256,26.168C129.064,26.168,26.168,129.064,26.168,256 S129.064,485.832,256,485.832S485.832,382.936,485.832,256S382.936,26.168,256,26.168L256,26.168z"/> </g><g> <path style="fill:#E21B1B;" d="M154.208,267.632l20.184,3.056c-3.936,10.936-9.848,19.288-17.728,25.072 c-7.88,5.776-17.12,8.664-27.696,8.664c-11.904,0-21.216-3.584-27.92-10.76c-6.712-7.168-10.064-17.576-10.064-31.216 c0-11.064,2.248-21.192,6.744-30.384c4.496-9.184,10.72-16.208,18.688-21.08s16.648-7.304,26.032-7.304 c10.536,0,19.064,2.824,25.568,8.464c6.504,5.648,10.336,13.336,11.496,23.08l-19.192,1.856c-1.064-5.664-3.112-9.776-6.144-12.32 c-3.032-2.544-7.072-3.816-12.12-3.816c-5.536,0-10.704,1.68-15.504,5.048c-4.808,3.36-8.648,8.624-11.52,15.768 c-2.872,7.152-4.312,14.288-4.312,21.416c0,7.8,1.864,13.816,5.608,18.064s8.4,6.376,13.976,6.376c5.176,0,9.928-1.68,14.24-5.048 C148.864,279.208,152.08,274.224,154.208,267.632z"/> <path style="fill:#E21B1B;" d="M184.952,271.152l19.056-0.992c0.264,6.064,1.312,10.168,3.128,12.288 c2.92,3.456,8.32,5.168,16.2,5.168c6.552,0,11.288-1.168,14.208-3.512s4.384-5.176,4.384-8.496c0-2.872-1.192-5.312-3.584-7.304 c-1.68-1.464-6.296-3.832-13.84-7.112c-7.544-3.272-13.064-6.008-16.536-8.192c-3.48-2.192-6.2-5.04-8.2-8.536 c-1.984-3.496-2.984-7.592-2.984-12.288c0-8.192,2.968-14.984,8.896-20.384s14.52-8.104,25.768-8.104 c11.424,0,20.264,2.68,26.528,8.032c6.264,5.352,9.704,12.488,10.32,21.384l-19.184,0.864c-0.488-4.648-2.168-8.208-5.048-10.688 s-7.128-3.72-12.752-3.72c-5.528,0-9.488,0.976-11.848,2.92s-3.552,4.408-3.552,7.368c0,2.792,1.088,5.088,3.248,6.904 c2.168,1.856,6.976,4.408,14.416,7.64c11.2,4.824,18.328,8.744,21.384,11.752c4.56,4.424,6.84,10.12,6.84,17.072 c0,8.584-3.4,15.928-10.192,22.016c-6.8,6.088-16.256,9.128-28.392,9.128c-8.368,0-15.616-1.4-21.752-4.208 s-10.464-6.72-12.976-11.728C185.944,283.416,184.776,277.664,184.952,271.152z"/> <path style="fill:#E21B1B;" d="M275.664,271.152l19.056-0.992c0.264,6.064,1.312,10.168,3.128,12.288 c2.92,3.456,8.32,5.168,16.2,5.168c6.552,0,11.288-1.168,14.208-3.512s4.384-5.176,4.384-8.496c0-2.872-1.192-5.312-3.584-7.304 c-1.68-1.464-6.296-3.832-13.84-7.112c-7.544-3.272-13.064-6.008-16.536-8.192c-3.48-2.192-6.2-5.04-8.2-8.536 c-1.984-3.496-2.984-7.592-2.984-12.288c0-8.192,2.968-14.984,8.896-20.384s14.52-8.104,25.768-8.104 c11.424,0,20.264,2.68,26.528,8.032s9.704,12.488,10.32,21.384l-19.184,0.864c-0.488-4.648-2.168-8.208-5.048-10.688 s-7.128-3.72-12.752-3.72c-5.528,0-9.488,0.976-11.848,2.92s-3.552,4.408-3.552,7.368c0,2.792,1.088,5.088,3.248,6.904 c2.168,1.856,6.976,4.408,14.416,7.64c11.2,4.824,18.328,8.744,21.384,11.752c4.56,4.424,6.84,10.12,6.84,17.072 c0,8.584-3.4,15.928-10.192,22.016s-16.256,9.128-28.392,9.128c-8.368,0-15.616-1.4-21.752-4.208s-10.464-6.72-12.976-11.728 C276.656,283.416,275.488,277.664,275.664,271.152z"/> <path style="fill:#E21B1B;" d="M364.648,277.256l18.264-2.184c0.752,5.176,2.112,8.768,4.08,10.76s4.592,2.992,7.872,2.992 c4.336,0,7.928-1.472,10.792-4.392c2.848-2.92,4.28-6.656,4.28-11.216c0-3.984-1.152-7.144-3.456-9.464 c-2.304-2.328-5.4-3.488-9.296-3.488c-0.976,0-1.992,0.088-3.056,0.264l3.32-15.872c0.664,0.088,1.304,0.136,1.928,0.136 c5.088,0,8.96-1.296,11.616-3.88c2.656-2.592,3.984-6.104,3.984-10.528c0-3.144-0.896-5.624-2.688-7.44 c-1.8-1.816-4.152-2.72-7.072-2.72c-2.752,0-5.2,1.008-7.376,3.024c-2.168,2.008-3.896,5.456-5.176,10.328l-17.4-3.456 c2.208-7.168,5.288-12.68,9.232-16.536c5.968-5.752,13.32-8.632,22.048-8.632c8.936,0,15.736,2.496,20.384,7.472 c4.648,4.984,6.976,10.952,6.976,17.896c0,5.048-1.488,9.608-4.456,13.68s-7.04,7.064-12.216,8.968 c4.12,2.168,7.152,4.984,9.096,8.432c1.952,3.456,2.92,7.064,2.92,10.824c0,7.168-2.536,13.776-7.632,19.8 c-6.952,8.232-15.912,12.344-26.896,12.344c-8.232,0-15.016-2.352-20.352-7.072C369.04,292.568,365.8,285.896,364.648,277.256z"/> </g></symbol><symbol id="ai" viewBox="0 0 512 512"><title>ai</title><path d="M512,512H0V0h512V512z"/><path d="M512,512H256V0h256V512z"/><path style="fill:#994C0F;" d="M482,482H30V30h452V482z"/><path style="fill:#713708;" d="M482,482H256V30h226V482z"/><path style="fill:#FEC478;" d="M207.502,181.6h29.28l64.8,170.4h-34.08l-15.84-42.48h-59.52l-15.6,42.48h-34.08L207.502,181.6z M245.662,286.24l-23.52-66.96l-24.48,66.96H245.662z"/><g> <path style="fill:#FEA832;" d="M317.182,208.72V176.8h32.159v31.92H317.182z M317.182,352V226.24h32.159V352H317.182z"/> <polygon style="fill:#FEA832;" points="256,232.137 256,321.155 267.502,352 301.582,352 "/> </g></symbol><symbol id="psd" viewBox="0 -10 650.001 650"><title>psd</title><path d="M 482.257812 178.226562 L 10.484375 178.226562 L 10.484375 450.804688 L 639.515625 450.804688 L 639.515625 178.226562 Z M 241.128906 293.546875 C 241.128906 305.128906 231.738281 314.515625 220.160156 314.515625 L 157.257812 314.515625 L 157.257812 230.644531 L 220.160156 230.644531 C 231.738281 230.644531 241.128906 240.035156 241.128906 251.613281 Z M 304.03125 314.515625 L 345.964844 314.515625 C 357.546875 314.515625 366.933594 323.90625 366.933594 335.484375 L 366.933594 377.417969 C 366.933594 389 357.546875 398.386719 345.964844 398.386719 C 357.546875 398.386719 366.933594 389 366.933594 377.417969 L 366.933594 335.484375 C 366.933594 323.90625 357.546875 314.515625 345.964844 314.515625 L 304.03125 314.515625 C 292.449219 314.515625 283.0625 305.128906 283.0625 293.546875 L 283.0625 251.613281 C 283.0625 240.035156 292.449219 230.644531 304.03125 230.644531 C 292.449219 230.644531 283.0625 240.035156 283.0625 251.613281 L 283.0625 293.546875 C 283.0625 305.128906 292.449219 314.515625 304.03125 314.515625 Z M 492.742188 356.453125 C 492.742188 379.613281 473.964844 398.386719 450.804688 398.386719 L 408.871094 398.386719 L 408.871094 230.644531 L 440.324219 230.644531 C 463.480469 230.644531 492.742188 249.421875 492.742188 272.582031 Z M 492.742188 356.453125 " style=" stroke:none;fill-rule:nonzero;fill:rgb(20%,54.117647%,95.294118%);fill-opacity:1;"/><path d="M 220.160156 230.644531 L 157.257812 230.644531 L 157.257812 314.515625 L 220.160156 314.515625 C 231.738281 314.515625 241.128906 305.128906 241.128906 293.546875 L 241.128906 251.613281 C 241.128906 240.035156 231.738281 230.644531 220.160156 230.644531 Z M 220.160156 230.644531 " style=" stroke:none;fill-rule:nonzero;fill:rgb(20%,54.117647%,95.294118%);fill-opacity:1;"/><path d="M 440.320312 230.644531 L 408.871094 230.644531 L 408.871094 398.386719 L 450.804688 398.386719 C 473.964844 398.386719 492.738281 379.613281 492.738281 356.453125 L 492.738281 272.582031 C 492.742188 249.421875 463.480469 230.644531 440.320312 230.644531 Z M 440.320312 230.644531 " style=" stroke:none;fill-rule:nonzero;fill:rgb(20%,54.117647%,95.294118%);fill-opacity:1;"/><path d="M 167.742188 450.804688 L 482.257812 450.804688 L 482.257812 503.226562 L 167.742188 503.226562 Z M 167.742188 450.804688 " style=" stroke:none;fill-rule:nonzero;fill:rgb(80%,88.627451%,98.823529%);fill-opacity:1;"/><path d="M 167.742188 125.804688 L 482.257812 125.804688 L 482.257812 178.226562 L 167.742188 178.226562 Z M 167.742188 125.804688 " style=" stroke:none;fill-rule:nonzero;fill:rgb(80%,88.627451%,98.823529%);fill-opacity:1;"/><path d="M 167.742188 450.804688 L 482.257812 450.804688 L 482.257812 503.226562 L 167.742188 503.226562 Z M 167.742188 450.804688 " style=" stroke:none;fill-rule:nonzero;fill:rgb(80%,88.627451%,98.823529%);fill-opacity:1;"/><path d="M 167.742188 125.804688 L 482.257812 125.804688 L 482.257812 178.226562 L 167.742188 178.226562 Z M 167.742188 125.804688 " style=" stroke:none;fill-rule:nonzero;fill:rgb(80%,88.627451%,98.823529%);fill-opacity:1;"/><path d="M 209.675781 83.871094 L 440.320312 83.871094 L 440.320312 104.839844 L 209.675781 104.839844 Z M 209.675781 83.871094 " style=" stroke:none;fill-rule:nonzero;fill:rgb(13.72549%,12.156863%,12.54902%);fill-opacity:1;"/><path d="M 241.128906 52.417969 L 408.871094 52.417969 L 408.871094 73.386719 L 241.128906 73.386719 Z M 241.128906 52.417969 " style=" stroke:none;fill-rule:nonzero;fill:rgb(13.72549%,12.156863%,12.54902%);fill-opacity:1;"/><path d="M 209.675781 524.195312 L 440.320312 524.195312 L 440.320312 545.160156 L 209.675781 545.160156 Z M 209.675781 524.195312 " style=" stroke:none;fill-rule:nonzero;fill:rgb(13.72549%,12.156863%,12.54902%);fill-opacity:1;"/><path d="M 241.128906 555.644531 L 408.871094 555.644531 L 408.871094 576.613281 L 241.128906 576.613281 Z M 241.128906 555.644531 " style=" stroke:none;fill-rule:nonzero;fill:rgb(13.72549%,12.156863%,12.54902%);fill-opacity:1;"/><path d="M 649.820312 177.34375 C 649.757812 176.632812 649.613281 175.929688 649.402344 175.25 C 649.230469 174.617188 648.992188 174.007812 648.699219 173.425781 C 648.402344 172.855469 648.050781 172.316406 647.652344 171.808594 C 647.210938 171.246094 646.714844 170.726562 646.175781 170.257812 C 645.933594 170.070312 645.808594 169.796875 645.554688 169.617188 L 545.160156 99.375 L 545.160156 10.484375 C 545.160156 4.695312 540.464844 0 534.675781 0 L 115.320312 0 C 109.53125 0 104.839844 4.695312 104.839844 10.484375 L 104.839844 99.378906 L 4.476562 169.617188 C 4.222656 169.796875 4.097656 170.070312 3.855469 170.257812 C 3.316406 170.726562 2.820312 171.25 2.378906 171.808594 C 1.980469 172.316406 1.628906 172.855469 1.332031 173.425781 C 1.035156 174.007812 0.800781 174.621094 0.628906 175.25 C 0.414062 175.929688 0.273438 176.632812 0.210938 177.347656 C 0.125 177.636719 0.0546875 177.929688 0 178.226562 L 0 450.804688 C 0 456.597656 4.695312 461.289062 10.484375 461.289062 L 104.839844 461.289062 L 104.839844 618.546875 C 104.839844 624.339844 109.53125 629.03125 115.324219 629.03125 L 534.679688 629.03125 C 540.46875 629.03125 545.160156 624.339844 545.160156 618.546875 L 545.160156 461.289062 L 639.515625 461.289062 C 645.308594 461.289062 650 456.597656 650 450.804688 L 650 178.226562 C 649.957031 177.929688 649.894531 177.636719 649.820312 177.34375 Z M 606.261719 167.742188 L 545.160156 167.742188 L 545.160156 124.976562 Z M 524.191406 20.96875 L 524.191406 167.742188 L 492.742188 167.742188 L 492.742188 125.804688 C 492.742188 120.015625 488.046875 115.324219 482.257812 115.324219 L 167.742188 115.324219 C 161.949219 115.324219 157.257812 120.015625 157.257812 125.804688 L 157.257812 167.742188 L 125.804688 167.742188 L 125.804688 20.96875 Z M 178.226562 167.742188 L 178.226562 136.289062 L 471.773438 136.289062 L 471.773438 167.742188 Z M 104.839844 167.742188 L 43.738281 167.742188 L 104.839844 124.976562 Z M 524.191406 608.066406 L 125.804688 608.066406 L 125.804688 461.289062 L 157.257812 461.289062 L 157.257812 503.226562 C 157.257812 509.015625 161.949219 513.710938 167.742188 513.710938 L 482.257812 513.710938 C 488.046875 513.710938 492.742188 509.015625 492.742188 503.226562 L 492.742188 461.289062 L 524.191406 461.289062 Z M 471.773438 461.289062 L 471.773438 492.742188 L 178.226562 492.742188 L 178.226562 461.289062 Z M 629.03125 440.324219 L 20.96875 440.324219 L 20.96875 188.710938 L 629.03125 188.710938 Z M 629.03125 440.324219 " style=" stroke:none;fill-rule:nonzero;fill:rgb(13.72549%,12.156863%,12.54902%);fill-opacity:1;"/><path d="M 304.03125 241.128906 L 366.933594 241.128906 C 372.722656 241.128906 377.417969 236.433594 377.417969 230.644531 C 377.417969 224.855469 372.722656 220.160156 366.933594 220.160156 L 304.03125 220.160156 C 286.660156 220.160156 272.578125 234.242188 272.578125 251.613281 L 272.578125 293.546875 C 272.578125 310.917969 286.660156 325 304.03125 325 L 345.964844 325 C 351.757812 325 356.449219 329.695312 356.449219 335.484375 L 356.449219 377.417969 C 356.449219 383.210938 351.757812 387.902344 345.964844 387.902344 L 283.0625 387.902344 C 277.273438 387.902344 272.578125 392.597656 272.578125 398.386719 C 272.578125 404.175781 277.273438 408.871094 283.0625 408.871094 L 345.964844 408.871094 C 363.335938 408.871094 377.417969 394.789062 377.417969 377.417969 L 377.417969 335.484375 C 377.417969 318.113281 363.335938 304.03125 345.964844 304.03125 L 304.03125 304.03125 C 298.242188 304.03125 293.546875 299.339844 293.546875 293.546875 L 293.546875 251.613281 C 293.546875 245.824219 298.242188 241.128906 304.03125 241.128906 Z M 304.03125 241.128906 " style=" stroke:none;fill-rule:nonzero;fill:rgb(13.72549%,12.156863%,12.54902%);fill-opacity:1;"/><path d="M 220.160156 220.160156 L 157.257812 220.160156 C 151.46875 220.160156 146.773438 224.855469 146.773438 230.644531 L 146.773438 398.386719 C 146.773438 404.175781 151.46875 408.871094 157.257812 408.871094 C 163.046875 408.871094 167.742188 404.175781 167.742188 398.386719 L 167.742188 325 L 220.160156 325 C 237.53125 325 251.613281 310.917969 251.613281 293.546875 L 251.613281 251.613281 C 251.613281 234.242188 237.53125 220.160156 220.160156 220.160156 Z M 230.644531 293.546875 C 230.644531 299.339844 225.949219 304.03125 220.160156 304.03125 L 167.742188 304.03125 L 167.742188 241.128906 L 220.160156 241.128906 C 225.949219 241.128906 230.644531 245.824219 230.644531 251.613281 Z M 230.644531 293.546875 " style=" stroke:none;fill-rule:nonzero;fill:rgb(13.72549%,12.156863%,12.54902%);fill-opacity:1;"/><path d="M 440.320312 220.160156 L 408.871094 220.160156 C 403.078125 220.160156 398.386719 224.855469 398.386719 230.644531 L 398.386719 398.386719 C 398.386719 404.175781 403.078125 408.871094 408.871094 408.871094 L 450.804688 408.871094 C 479.742188 408.835938 503.191406 385.386719 503.222656 356.453125 L 503.222656 272.582031 C 503.226562 243.058594 469.402344 220.160156 440.320312 220.160156 Z M 482.257812 356.453125 C 482.257812 373.820312 468.175781 387.902344 450.804688 387.902344 L 419.351562 387.902344 L 419.351562 241.128906 L 440.320312 241.128906 C 458.636719 241.128906 482.257812 256.382812 482.257812 272.582031 Z M 482.257812 356.453125 " style=" stroke:none;fill-rule:nonzero;fill:rgb(13.72549%,12.156863%,12.54902%);fill-opacity:1;"/></symbol></svg>